<svg xmlns="http://www.w3.org/2000/svg" enable-background="new 0 0 32 32" width="32" height="32"><rect id="backgroundrect" width="100%" height="100%" x="0" y="0" fill="none" stroke="none"/>
    
<g class="currentLayer"><title>Layer 1</title><path style="text-indent:0;text-align:start;line-height:normal;text-transform:none;block-progression:tb;-inkscape-font-specification:Bitstream Vera Sans" d="M1.4818652868270874,5 L1.4818652868270874,6 L1.4818652868270874,26 L1.4818652868270874,27 L2.4818652868270874,27 L28.481865286827087,27 L29.481865286827087,27 L29.481865286827087,26 L29.481865286827087,6 L29.481865286827087,5 L28.481865286827087,5 L2.4818652868270874,5 L1.4818652868270874,5 zM3.4818652868270874,7 L27.481865286827087,7 L27.481865286827087,20.90625 L22.200615286827087,15.59375 L21.481865286827087,14.875 L20.763115286827087,15.59375 L16.950615286827087,19.40625 L11.200615286827087,13.59375 L10.481865286827087,12.875 L9.763115286827087,13.59375 L3.4818652868270874,19.875 L3.4818652868270874,7 zM23.481865286827087,9 C22.377296286827086,9 21.481865286827087,9.8954305 21.481865286827087,11 C21.481865286827087,12.104569 22.377296286827086,13 23.481865286827087,13 C24.58643428682709,13 25.481865286827087,12.104569 25.481865286827087,11 C25.481865286827087,9.8954305 24.58643428682709,9 23.481865286827087,9 zM10.481865286827087,15.71875 L19.669365286827087,25 L3.4818652868270874,25 L3.4818652868270874,22.71875 L10.481865286827087,15.71875 zM21.481865286827087,17.71875 L27.481865286827087,23.71875 L27.481865286827087,25 L22.513115286827087,25 L18.356865286827087,20.8125 L21.481865286827087,17.71875 z" color="#000" overflow="visible" enable-background="accumulate" font-family="Bitstream Vera Sans" id="svg_1" class="selected" fill="#ffffff" fill-opacity="1"/></g></svg>