<?xml version="1.0" encoding="utf-8"?>
<!-- Generator: Adobe Illustrator 16.0.0, SVG Export Plug-In . SVG Version: 6.00 Build 0)  -->
<!DOCTYPE svg PUBLIC "-//W3C//DTD SVG 1.1//EN" "http://www.w3.org/Graphics/SVG/1.1/DTD/svg11.dtd">
<svg version="1.1" id="Isolation_Mode" xmlns="http://www.w3.org/2000/svg" xmlns:xlink="http://www.w3.org/1999/xlink" x="0px"
	 y="0px" width="612px" height="108px" viewBox="0 291.5 612 108" enable-background="new 0 291.5 612 108" xml:space="preserve">
<g>
	<path fill="#4D4D4F" d="M26.4,339.8v-45.3h2v45.2v0.1l0.2,13.8l-0.5,5.6c0,0-0.5,4-2.8,6.2c0,0-1.5,1.8-3.1,3.2
		c-1.6,1.4-2.2,3.2-2.2,3.2l-0.5,3.2l3.4-4.6c3.5-3.7,6.8-6.7,7.3-12.2l0.1-1.7v-62h2.1v64.8v0.6c0,0-0.3,8.9-3.7,16.7
		c0,0-1.3,2.8-2.7,5.1c-1.8,3-4.2,4.6-6.2,9.2l-0.2,3.1l-2.6,0.1l-0.2-6.4c0,0-0.4-1.2-0.6-3.3c-0.2-2.1-1.3-4-1.3-4l-0.2-0.3
		C2.9,366.4,4.1,354.3,4.1,354.3L4,352.5v-58h1.9L6,347l0.2,3.6c0,0-0.4,4.4,2.7,7.8c2.2,2.4,2.4,2.3,4.2,4.4c1.7,2,2.8,4.7,2.8,4.7
		L16,365l-0.9-2.5l-1.4-1.8c-6.8-5.7-5.8-12.9-5.8-12.9l-0.1-53.2h1.8v37.1l0.6,3.2c0,0,1.4,4.3,2.8,7.7c2.3,5.6,4.1,8.9,4.1,8.9
		s-0.3-4.6-0.9-5.6c-0.6-1.1-1.8-3.9-1.8-3.9c-1.5-3.7-2.1-7-2.1-7l-0.6-2.6l-0.1-2v-35.8h1.8c0,0,0,20.6,0,23c0,4.2,1,5.8,1.8,7.4
		c0.7,1.6,1.5,4.5,1.5,4.5s0.6-1.7-0.7-7.1c-0.4-1.4-0.7-6.5-0.7-6.5v-21.2h1.8v14c0,0,0.6,6,1.2,4.4c0.6-1.7,0.7-3.4,0.7-3.4v-15.1
		h1.9v32.2c0,0-0.2,4.1-1,6.6c-1,3-0.6,4.9-0.6,4.9s1.1-1.3,2-4.2c0.4-1.4,1.6-5.7,1.6-5.7v-33.8h1.9v44.6c0,0-0.5,3.7-2.4,9.1
		c-1.3,3.8-1.9,4.5-2.2,5.8c-0.4,1.9-0.2,3.8-0.2,3.8l2.6-5.9c0.6-1.3,1.5-3.1,1.5-3.1s0.6-1.5,1.5-4.2L26.4,339.8z"/>
	<path fill="#4D4D4F" d="M53.2,330c0.6,0.2,1.3,0.6,1.9,1.3c0.3,0.3,0.4,0.7,0.6,1.3c0.2,1.1,0.2,1.8-0.4,2.6
		c-0.6,0.8-1.2,0.9-2,0.8c-0.9,0-1.4-0.3-2-0.4c-0.6-0.1-1.1-0.5-1.5-0.8c-0.4-0.3-0.6-0.8-0.8-1.6c-0.2-0.9-0.1-1.4,0.1-2.1
		c0.1-0.6,0.2-0.9,0.7-1.3c0.5-0.3,0.9-0.4,1.6-0.3c0.3,0,0.7,0.1,1,0.2L53.2,330z"/>
	<path fill="#4D4D4F" d="M42.5,320.5c0.1,0.7,0.2,1.5,0.3,2.3c0.2,1.3,0.4,2.1,0.5,2.6c0,0.4,0,0.8-0.4,1c-0.2,0.2-0.3,0.1-0.3,0.1
		c-0.3-0.1-0.5-0.3-0.6-1c-0.1-0.8-0.3-1.6-0.3-2.4c0-0.8-0.1-1.2,0-2.1c0-0.4,0.1-0.8,0.2-0.9c0,0,0.1-0.1,0.3,0
		C42.4,320.1,42.5,320.2,42.5,320.5"/>
	<path fill="#4D4D4F" d="M42.7,312.8v0.8c0,0.6,0.1,1.6,0.3,2.7c0.3,1.5,0.4,2.2,0.2,2.8c-0.1,0.2-0.2,0.3-0.3,0.4
		c-0.3,0.3-0.5,0.2-0.7-0.1c-0.3-0.4-0.4-0.9-0.5-1.7l-0.1-1.3c-0.1-1.3-0.1-2.1,0.1-2.9c0.1-0.5,0.1-0.9,0.4-1.2
		c0.1-0.1,0.1-0.1,0.3-0.1C42.6,312.2,42.7,312.4,42.7,312.8"/>
	<path fill="#4D4D4F" d="M42.5,327.2c0.1,0.6,0.2,1.5,0.3,2.3c0.2,1.3,0.4,2.1,0.5,2.6c0.1,0.4,0,0.8-0.4,1.1
		c-0.2,0.1-0.3,0.1-0.4,0.1c-0.3-0.1-0.5-0.3-0.6-0.9c-0.1-0.8-0.3-1.6-0.3-2.4s0-1.3,0-2.2c0-0.4,0.1-0.8,0.2-0.9
		c0-0.1,0.1-0.1,0.3-0.1C42.4,326.8,42.5,326.9,42.5,327.2"/>
	<path fill="#4D4D4F" d="M53.2,323.5c0.6,0.2,1.3,0.6,1.9,1.3c0.3,0.3,0.4,0.7,0.6,1.3c0.2,1.1,0.2,1.8-0.4,2.6
		c-0.6,0.8-1.2,0.9-2,0.8c-0.9,0-1.4-0.3-2-0.4c-0.6-0.1-1.1-0.5-1.5-0.8c-0.4-0.3-0.6-0.8-0.8-1.6c-0.2-0.8-0.1-1.4,0.1-2
		c0.1-0.6,0.2-0.9,0.7-1.3c0.5-0.3,0.9-0.4,1.6-0.3c0.3,0,0.7,0.1,1,0.2L53.2,323.5z"/>
	<path fill="#4D4D4F" d="M53.2,343.2c0.6,0.2,1.3,0.6,1.9,1.3c0.3,0.3,0.4,0.7,0.6,1.3c0.2,1.1,0.2,1.8-0.4,2.6
		c-0.6,0.8-1.2,0.9-2,0.8c-0.9,0-1.4-0.3-2-0.4c-0.6-0.1-1.1-0.5-1.5-0.8c-0.4-0.3-0.6-0.8-0.8-1.6c-0.2-0.8-0.1-1.4,0.1-2
		c0.1-0.6,0.2-0.9,0.7-1.3c0.5-0.3,0.9-0.4,1.6-0.3c0.3,0,0.7,0.1,1,0.2L53.2,343.2z"/>
	<path fill="#4D4D4F" d="M53.2,336.6c0.6,0.2,1.3,0.6,1.9,1.3c0.3,0.3,0.4,0.7,0.6,1.3c0.2,1.1,0.2,1.8-0.4,2.6
		c-0.6,0.8-1.2,0.9-2,0.8c-0.9,0-1.4-0.3-2-0.4c-0.6-0.1-1.1-0.5-1.5-0.8c-0.4-0.3-0.6-0.8-0.8-1.6c-0.2-0.8-0.1-1.4,0.1-2
		c0.1-0.6,0.2-0.9,0.7-1.3s0.9-0.4,1.6-0.4c0.4,0,0.7,0.1,1,0.2L53.2,336.6z"/>
	<path fill="#4D4D4F" d="M53.2,356.4c0.6,0.2,1.3,0.6,1.9,1.3c0.3,0.3,0.4,0.7,0.6,1.3c0.2,1.1,0.2,1.8-0.4,2.6
		c-0.6,0.8-1.2,0.9-2,0.8c-0.9-0.1-1.4-0.3-2-0.4c-0.6-0.1-1.1-0.5-1.5-0.8c-0.4-0.3-0.6-0.8-0.8-1.6c-0.2-0.8-0.1-1.4,0.1-2
		c0.1-0.6,0.2-0.9,0.7-1.3c0.5-0.3,0.9-0.4,1.6-0.3c0.3,0,0.7,0.1,1,0.1L53.2,356.4z"/>
	<path fill="#4D4D4F" d="M53.2,349.8c0.6,0.2,1.3,0.6,1.9,1.3c0.3,0.3,0.4,0.8,0.6,1.3c0.2,1.1,0.2,1.8-0.4,2.6
		c-0.6,0.8-1.2,0.9-2,0.8c-0.9-0.1-1.4-0.3-2-0.4c-0.6-0.1-1-0.5-1.5-0.8c-0.4-0.3-0.6-0.8-0.8-1.6c-0.2-0.9-0.1-1.4,0.1-2.1
		c0.1-0.6,0.2-0.9,0.7-1.3c0.5-0.3,0.9-0.4,1.6-0.3c0.3,0,0.7,0.1,1,0.2L53.2,349.8z"/>
	<path fill="#4D4D4F" d="M53.2,369.6c0.6,0.2,1.3,0.6,1.9,1.3c0.3,0.3,0.4,0.7,0.6,1.3c0.2,1.1,0.2,1.8-0.4,2.6
		c-0.6,0.8-1.2,0.9-2,0.8c-0.9-0.1-1.4-0.3-2-0.4c-0.6-0.1-1.1-0.5-1.5-0.8c-0.4-0.3-0.6-0.8-0.8-1.6c-0.2-0.9-0.1-1.4,0.1-2.1
		c0.1-0.6,0.2-0.9,0.7-1.3c0.5-0.3,0.9-0.4,1.6-0.3c0.3,0,0.7,0.1,1,0.2L53.2,369.6z"/>
	<path fill="#4D4D4F" d="M53.2,363c0.6,0.2,1.3,0.6,1.9,1.3c0.3,0.3,0.4,0.7,0.6,1.3c0.2,1.1,0.2,1.8-0.4,2.6
		c-0.6,0.8-1.2,0.9-2,0.8c-0.9,0-1.4-0.3-2-0.4c-0.6-0.1-1.1-0.5-1.5-0.8c-0.4-0.3-0.6-0.8-0.8-1.6c-0.2-0.9-0.1-1.4,0.1-2.1
		c0.1-0.6,0.2-0.9,0.7-1.3c0.5-0.4,0.9-0.4,1.6-0.3c0.3,0,0.7,0,1,0.2L53.2,363z"/>
	<path fill="#4D4D4F" d="M53.2,382.7c0.6,0.2,1.3,0.6,1.9,1.3c0.3,0.3,0.4,0.7,0.6,1.3c0.2,1.1,0.2,1.8-0.4,2.6
		c-0.6,0.8-1.2,0.9-2,0.8c-0.9,0-1.4-0.3-2-0.4c-0.6-0.1-1-0.5-1.5-0.8c-0.4-0.3-0.6-0.8-0.8-1.6c-0.2-0.9-0.1-1.4,0.1-2
		c0.1-0.6,0.2-0.9,0.7-1.3s0.9-0.4,1.6-0.4c0.4,0,0.7,0.1,1,0.2L53.2,382.7z"/>
	<path fill="#4D4D4F" d="M53.2,376.2c0.6,0.2,1.3,0.6,1.9,1.3c0.3,0.3,0.4,0.7,0.6,1.3c0.2,1.1,0.2,1.8-0.4,2.6
		c-0.6,0.8-1.2,0.9-2,0.9c-0.9-0.1-1.4-0.3-2-0.4c-0.6-0.1-1-0.5-1.5-0.8c-0.4-0.3-0.6-0.8-0.8-1.6s-0.1-1.4,0.1-2.1
		c0.1-0.6,0.2-0.9,0.7-1.3s0.9-0.4,1.6-0.4c0.3,0,0.7,0.1,1,0.2L53.2,376.2z"/>
	<path fill="#4D4D4F" d="M53.2,389.3c0.6,0.2,1.3,0.6,1.9,1.3c0.3,0.3,0.4,0.7,0.6,1.3c0.2,1.1,0.2,1.8-0.4,2.6
		c-0.6,0.8-1.2,0.9-2,0.9c-0.9-0.1-1.4-0.3-2-0.4c-0.6-0.1-1.1-0.5-1.5-0.8c-0.4-0.3-0.6-0.8-0.8-1.6c-0.2-0.9-0.1-1.4,0.1-2
		c0.1-0.6,0.2-0.9,0.7-1.3c0.5-0.4,0.9-0.4,1.6-0.4c0.4,0,0.7,0.1,1,0.2h0.2L53.2,389.3z"/>
	<path fill="#4D4D4F" d="M48.4,331.1c-0.1,0.6-0.5,0.8-1,1c-0.6,0.1-0.9,0.1-1.4-0.2c-0.5-0.3-0.9-0.5-1.2-0.9
		c-0.3-0.4-0.8-0.8-1.1-1.7c-0.3-0.8-0.6-1.7-0.5-2.5c0.2-0.8,0.7-1.2,1.2-1.3s1.3,0.1,1.7,0.5s0.8,0.8,1.2,1.2
		c0.5,0.6,1.2,2,1.2,3.1C48.5,330.5,48.5,330.8,48.4,331.1"/>
	<path fill="#4D4D4F" d="M48.4,337.8c-0.1,0.6-0.5,0.8-1,1c-0.6,0.1-0.9,0.1-1.4-0.2c-0.5-0.3-0.9-0.6-1.2-0.9
		c-0.3-0.4-0.8-0.8-1.1-1.7c-0.3-0.8-0.6-1.7-0.5-2.6c0.2-0.8,0.7-1.2,1.2-1.3s1.3,0.1,1.7,0.5s0.8,0.8,1.2,1.2
		c0.5,0.6,1.2,2,1.2,3.1C48.5,337.2,48.5,337.5,48.4,337.8"/>
	<path fill="#4D4D4F" d="M48.4,344.5c-0.1,0.6-0.5,0.8-1,1c-0.6,0.1-0.9,0.1-1.4-0.2c-0.5-0.3-0.9-0.5-1.2-0.9
		c-0.3-0.4-0.8-0.8-1.1-1.7c-0.3-0.8-0.6-1.7-0.5-2.5c0.2-0.8,0.7-1.2,1.2-1.3s1.3,0.1,1.7,0.5s0.8,0.8,1.2,1.2
		c0.3,0.3,0.6,0.9,0.8,1.4c0.3,0.5,0.4,1.1,0.3,1.7C48.5,343.9,48.5,344.2,48.4,344.5"/>
	<path fill="#4D4D4F" d="M48.4,351.2c-0.1,0.6-0.5,0.8-1,0.9c-0.6,0.1-0.9,0.1-1.4-0.2c-0.5-0.3-0.9-0.6-1.2-0.9
		c-0.3-0.4-0.8-0.8-1.1-1.6c-0.3-0.8-0.6-1.7-0.5-2.5c0.2-0.8,0.7-1.2,1.2-1.3s1.3,0.1,1.7,0.5s0.8,0.8,1.2,1.2
		c0.5,0.6,1.2,2,1.2,3.1C48.5,350.6,48.5,350.9,48.4,351.2"/>
	<path fill="#4D4D4F" d="M48.4,357.9c-0.1,0.6-0.5,0.8-1,0.9c-0.6,0.1-0.9,0.1-1.4-0.1c-0.5-0.3-0.9-0.6-1.2-0.9
		c-0.3-0.4-0.8-0.8-1.1-1.7c-0.3-0.8-0.6-1.7-0.5-2.5c0.2-0.8,0.7-1.2,1.2-1.3c0.5-0.1,1.3,0.1,1.7,0.5c0.4,0.4,0.8,0.8,1.2,1.2
		c0.5,0.6,1.2,2,1.2,3.1C48.5,357.3,48.5,357.6,48.4,357.9"/>
	<path fill="#4D4D4F" d="M48.4,364.6c-0.1,0.6-0.5,0.8-1,0.9c-0.6,0.1-0.9,0.1-1.4-0.2c-0.5-0.3-0.9-0.5-1.2-0.9
		c-0.3-0.4-0.8-0.8-1.1-1.7c-0.3-0.8-0.6-1.7-0.5-2.5c0.2-0.8,0.7-1.2,1.2-1.3s1.3,0.1,1.7,0.5s0.8,0.8,1.2,1.2
		c0.5,0.6,1.2,2,1.2,3.1C48.5,364,48.5,364.3,48.4,364.6"/>
	<path fill="#4D4D4F" d="M48.4,371.3c-0.1,0.6-0.5,0.8-1,1c-0.6,0.1-0.9,0.1-1.4-0.2c-0.5-0.3-0.9-0.5-1.2-0.9
		c-0.3-0.4-0.8-0.8-1.1-1.7c-0.3-0.8-0.6-1.7-0.5-2.5c0.2-0.8,0.7-1.2,1.2-1.3c0.5-0.1,1.3,0.1,1.7,0.5c0.4,0.4,0.8,0.8,1.2,1.2
		c0.5,0.6,1.2,2,1.2,3.1C48.5,370.7,48.5,371,48.4,371.3"/>
	<path fill="#4D4D4F" d="M48.4,378c-0.1,0.6-0.5,0.9-1,1c-0.6,0.1-0.9,0.1-1.4-0.2c-0.5-0.3-0.9-0.6-1.2-0.9
		c-0.3-0.4-0.8-0.8-1.1-1.7c-0.3-0.8-0.6-1.7-0.5-2.5c0.2-0.8,0.7-1.2,1.2-1.3s1.3,0.1,1.7,0.4c0.4,0.4,0.8,0.8,1.2,1.2
		c0.3,0.3,0.6,0.9,0.8,1.4c0.3,0.5,0.4,1.1,0.3,1.7C48.5,377.4,48.5,377.7,48.4,378"/>
	<path fill="#4D4D4F" d="M48.4,384.7c-0.1,0.6-0.5,0.8-1,0.9c-0.6,0.1-0.9,0.1-1.4-0.2c-0.5-0.3-0.9-0.5-1.2-0.9
		c-0.3-0.4-0.8-0.8-1.1-1.7c-0.3-0.8-0.6-1.7-0.5-2.5c0.2-0.8,0.7-1.2,1.2-1.3s1.3,0.1,1.7,0.5s0.8,0.8,1.2,1.2
		c0.3,0.3,0.6,0.9,0.8,1.4c0.3,0.5,0.4,1.1,0.3,1.7C48.5,384.1,48.5,384.3,48.4,384.7"/>
	<path fill="#4D4D4F" d="M48.3,391c-0.2,0.6-0.5,0.8-1,1c-0.6,0.1-0.8,0.1-1.4-0.2c-0.6-0.3-0.9-0.6-1.2-0.9
		c-0.3-0.4-0.8-0.8-1.1-1.7c-0.3-0.8-0.6-1.7-0.5-2.5c0.2-0.8,0.7-1.2,1.2-1.3s1.3,0.1,1.7,0.5s0.9,0.9,1.2,1.2
		c0.3,0.3,0.6,0.9,0.9,1.4c0.2,0.5,0.4,1.1,0.3,1.6C48.5,390.4,48.4,390.7,48.3,391"/>
	<path fill="#4D4D4F" d="M42.5,333.8c0.1,0.7,0.2,1.5,0.3,2.3c0.2,1.3,0.4,2.1,0.5,2.6c0.1,0.4,0,0.8-0.4,1
		c-0.2,0.1-0.3,0.1-0.4,0.1c-0.3-0.1-0.5-0.3-0.6-1c-0.1-0.8-0.3-1.6-0.3-2.4c0-0.8,0-1.2,0-2.2c0-0.4,0.1-0.7,0.2-0.9
		c0,0,0.1-0.1,0.3,0C42.4,333.4,42.5,333.6,42.5,333.8"/>
	<path fill="#4D4D4F" d="M42.5,340.4c0.1,0.7,0.1,1.5,0.3,2.3c0.2,1.3,0.4,2.1,0.5,2.6c0,0.4-0.1,0.8-0.4,1
		c-0.2,0.2-0.3,0.1-0.4,0.1c-0.3-0.1-0.5-0.3-0.6-0.9c-0.1-0.8-0.3-1.6-0.3-2.4c0-0.8-0.1-1.3,0-2.2c0-0.4,0.1-0.7,0.2-0.9
		c0-0.1,0.1-0.1,0.3-0.1C42.3,340,42.4,340.2,42.5,340.4"/>
	<path fill="#4D4D4F" d="M42.5,347.1c0.1,0.6,0.1,1.5,0.3,2.3c0.2,1.3,0.4,2.1,0.5,2.6c0,0.4-0.1,0.8-0.4,1
		c-0.2,0.1-0.3,0.1-0.4,0.1c-0.3-0.1-0.5-0.3-0.6-1c-0.1-0.8-0.3-1.6-0.3-2.4c0-0.8-0.1-1.2,0-2.1c0-0.4,0.1-0.8,0.2-0.9
		c0-0.1,0.1-0.1,0.3-0.1C42.3,346.7,42.4,346.8,42.5,347.1"/>
	<path fill="#4D4D4F" d="M42.5,353.7c0.1,0.7,0.2,1.5,0.3,2.3c0.2,1.3,0.4,2.1,0.5,2.6c0.1,0.4,0,0.8-0.4,1
		c-0.2,0.2-0.3,0.1-0.4,0.1c-0.3-0.1-0.5-0.3-0.6-1c-0.1-0.7-0.3-1.6-0.3-2.4c0-0.8,0-1.3,0-2.2c0-0.4,0.1-0.7,0.2-1
		c0,0,0.1-0.1,0.3,0C42.4,353.3,42.5,353.5,42.5,353.7"/>
	<path fill="#4D4D4F" d="M42.5,360.4c0.1,0.7,0.1,1.5,0.3,2.3c0.2,1.3,0.4,2.1,0.5,2.6c0,0.4-0.1,0.8-0.4,1
		c-0.2,0.2-0.3,0.1-0.4,0.1c-0.3-0.1-0.5-0.3-0.6-1c-0.1-0.8-0.3-1.6-0.3-2.4s-0.1-1.2,0-2.2c0-0.4,0.1-0.7,0.2-0.9
		c0,0,0.1-0.1,0.3,0C42.3,360,42.4,360.1,42.5,360.4"/>
	<path fill="#4D4D4F" d="M42.6,367c0.1,0.7,0.2,1.5,0.3,2.3c0.2,1.3,0.4,2.1,0.5,2.6c0,0.4,0,0.8-0.4,1.1c-0.2,0.1-0.3,0.1-0.4,0.1
		c-0.3-0.1-0.5-0.3-0.6-1c-0.1-0.8-0.3-1.6-0.3-2.4c0-0.8-0.1-1.3,0-2.2c0.1-0.4,0.1-0.7,0.2-0.9c0-0.1,0.1-0.1,0.3-0.1
		C42.4,366.7,42.5,366.8,42.6,367"/>
	<path fill="#4D4D4F" d="M42.5,373.9c0.1,0.7,0.2,1.5,0.3,2.3c0.2,1.3,0.4,2.1,0.5,2.6c0.1,0.4,0,0.8-0.4,1
		c-0.2,0.1-0.3,0.1-0.4,0.1c-0.3-0.1-0.5-0.3-0.6-1c-0.1-0.8-0.3-1.6-0.3-2.4s0-1.2,0-2.2c0-0.4,0.1-0.8,0.2-0.9
		c0-0.1,0.1-0.1,0.3,0C42.4,373.5,42.5,373.6,42.5,373.9"/>
	<path fill="#4D4D4F" d="M42.5,380.6c0.1,0.6,0.2,1.5,0.3,2.3c0.2,1.3,0.4,2.1,0.5,2.6c0.1,0.4,0,0.8-0.4,1
		c-0.2,0.2-0.3,0.1-0.4,0.1c-0.3-0.1-0.5-0.3-0.6-1c-0.1-0.7-0.3-1.6-0.3-2.4c0-0.8,0-1.3,0-2.2c0-0.4,0.1-0.7,0.2-0.9
		c0-0.1,0.1-0.1,0.3-0.1C42.4,380.2,42.5,380.4,42.5,380.6"/>
	<path fill="#4D4D4F" d="M48.4,324.7c-0.1,0.6-0.5,0.8-1,0.9c-0.6,0.1-0.9,0.1-1.4-0.1c-0.5-0.3-0.9-0.5-1.2-0.9
		c-0.3-0.4-0.8-0.8-1.1-1.7c-0.3-0.8-0.6-1.7-0.5-2.5c0.2-0.8,0.7-1.2,1.2-1.3s1.3,0.1,1.7,0.5s0.8,0.8,1.2,1.2
		c0.3,0.3,0.6,0.9,0.8,1.4c0.3,0.5,0.4,1.1,0.3,1.6C48.5,324.1,48.5,324.3,48.4,324.7"/>
	<path fill="#4D4D4F" d="M59.6,329.7c0.6-0.2,1.4-0.2,1.9-0.1s1,0.5,1.2,0.8c0.2,0.4,0.3,1.1,0.4,1.7c0,0.3,0,0.7-0.1,1.1
		c-0.2,0.8-0.4,1.3-0.8,1.6c-0.5,0.3-0.9,0.7-1.5,0.8c-0.6,0.1-1.2,0.4-2,0.4c-0.8,0.1-1.4-0.1-2-0.9c-0.6-0.8-0.6-1.5-0.4-2.6
		c0.2-1.1,0.7-1.7,1.4-2.1c0.3-0.2,0.7-0.4,1-0.5L59.6,329.7z"/>
	<path fill="#4D4D4F" d="M69.7,319.6c0.6-0.2,0.7,0.2,0.8,1.2c0.1,0.9,0.1,1.4,0,2.2c0,0.8-0.2,1.7-0.3,2.4c-0.1,0.7-0.4,1-0.7,1.2
		c-0.4,0.1-0.9-0.3-1-0.7c-0.2-0.4-0.1-1,0.1-1.4c0.1-0.5,0.2-1.1,0.3-1.9c0.1-0.8,0.2-1.6,0.3-2.3
		C69.3,319.9,69.5,319.7,69.7,319.6"/>
	<path fill="#4D4D4F" d="M69.8,312.3c0.2-0.1,0.3,0,0.3,0.1c0.2,0.3,0.3,0.6,0.4,1.2c0.1,0.8,0.2,1.6,0.1,2.9l-0.1,1.3
		c-0.1,0.8-0.2,1.4-0.5,1.7c-0.2,0.3-0.4,0.3-0.7,0.1c-0.4-0.3-0.4-0.6-0.4-1c0-0.5,0.1-1.2,0.3-2.2c0.2-1.1,0.3-2.1,0.3-2.7v-0.8
		C69.3,312.6,69.4,312.4,69.8,312.3"/>
	<path fill="#4D4D4F" d="M69.7,326.6c0.3-0.1,0.3,0,0.3,0c0.1,0.2,0.2,0.5,0.2,0.9c0.1,0.9,0.1,1.4,0,2.2c0,0.8-0.2,1.6-0.3,2.4
		c-0.1,0.6-0.3,0.8-0.6,0.9c-0.1,0-0.2,0-0.4-0.1c-0.4-0.3-0.4-0.6-0.4-1.1c0.2-1,0.4-1.9,0.5-2.6c0.1-0.8,0.2-1.6,0.3-2.3
		C69.4,326.8,69.6,326.7,69.7,326.6"/>
	<path fill="#4D4D4F" d="M59.6,323.1c0.6-0.2,1.4-0.2,1.9-0.1s1,0.5,1.2,0.8c0.2,0.4,0.3,1.1,0.4,1.7c0,0.3,0,0.7-0.1,1.1
		c-0.2,0.8-0.4,1.3-0.8,1.6c-0.4,0.3-0.9,0.7-1.5,0.8c-0.6,0.2-1.2,0.4-2,0.4c-0.8,0-1.4-0.1-2-0.8c-0.6-0.8-0.6-1.5-0.4-2.6
		c0.2-1.1,0.7-1.7,1.4-2.1c0.3-0.2,0.7-0.4,1-0.5L59.6,323.1z"/>
	<path fill="#4D4D4F" d="M59.6,342.9c0.6-0.2,1.4-0.2,1.9-0.1c0.5,0.1,1,0.5,1.2,0.8c0.2,0.4,0.3,1.1,0.4,1.7c0,0.3,0,0.7-0.1,1.1
		c-0.2,0.8-0.4,1.3-0.8,1.6c-0.5,0.3-0.9,0.7-1.5,0.8c-0.6,0.1-1.2,0.4-2,0.4c-0.8,0-1.4-0.1-2-0.8c-0.6-0.8-0.6-1.5-0.4-2.6
		c0.2-1.1,0.7-1.6,1.4-2.1c0.3-0.2,0.7-0.4,1-0.5L59.6,342.9z"/>
	<path fill="#4D4D4F" d="M59.6,336.3c0.6-0.2,1.4-0.2,1.9-0.1c0.5,0.1,1,0.5,1.2,0.8c0.2,0.4,0.3,1.1,0.4,1.7c0,0.3,0,0.6-0.1,1.1
		c-0.2,0.8-0.4,1.3-0.8,1.6c-0.5,0.3-0.9,0.7-1.5,0.8c-0.6,0.1-1.2,0.4-2,0.4c-0.8,0-1.4-0.1-2-0.8c-0.6-0.8-0.6-1.5-0.4-2.6
		c0.2-1.1,0.7-1.7,1.4-2.1c0.3-0.2,0.7-0.4,1-0.5L59.6,336.3L59.6,336.3z"/>
	<path fill="#4D4D4F" d="M59.6,356.1c0.6-0.2,1.4-0.2,1.9-0.1s1,0.5,1.2,0.8c0.2,0.4,0.3,1.1,0.4,1.7c0,0.3,0,0.6-0.1,1.1
		c-0.2,0.8-0.4,1.3-0.8,1.6c-0.5,0.3-0.9,0.6-1.5,0.8c-0.6,0.1-1.2,0.4-2,0.4c-0.8,0.1-1.4-0.1-2-0.8c-0.6-0.8-0.6-1.5-0.4-2.6
		c0.2-1.1,0.7-1.7,1.4-2.1c0.3-0.2,0.7-0.4,1-0.5L59.6,356.1z"/>
	<path fill="#4D4D4F" d="M59.6,349.5c0.6-0.2,1.4-0.2,1.9-0.2c0.5,0.1,1,0.5,1.2,0.8c0.2,0.4,0.3,1.1,0.4,1.7c0,0.3,0,0.6-0.1,1.1
		c-0.2,0.8-0.4,1.3-0.8,1.6c-0.4,0.3-0.9,0.6-1.5,0.8c-0.6,0.1-1.2,0.4-2,0.4c-0.8,0-1.4,0-2-0.8c-0.6-0.8-0.6-1.5-0.4-2.6
		c0.2-1.1,0.7-1.7,1.4-2.1c0.3-0.2,0.7-0.4,1-0.5L59.6,349.5z"/>
	<path fill="#4D4D4F" d="M59.6,369.2c0.6-0.2,1.4-0.2,1.9-0.1s1,0.5,1.2,0.8c0.2,0.4,0.3,1.1,0.4,1.7c0,0.3,0,0.6-0.1,1.1
		c-0.2,0.8-0.4,1.3-0.8,1.6c-0.5,0.3-0.9,0.7-1.5,0.8c-0.6,0.1-1.2,0.4-2,0.4c-0.8,0-1.4-0.1-2-0.8c-0.6-0.8-0.6-1.5-0.4-2.6
		c0.2-1.1,0.7-1.6,1.4-2.1c0.3-0.2,0.7-0.4,1-0.5h0.1L59.6,369.2z"/>
	<path fill="#4D4D4F" d="M59.6,362.6c0.6-0.2,1.4-0.2,1.9-0.1s1,0.5,1.2,0.8c0.2,0.4,0.3,1.1,0.4,1.7c0,0.3,0,0.6-0.1,1.1
		c-0.2,0.8-0.4,1.3-0.8,1.6c-0.4,0.3-0.9,0.7-1.5,0.8c-0.6,0.1-1.2,0.4-2,0.4c-0.8,0.1-1.4-0.1-2-0.9c-0.6-0.8-0.6-1.5-0.4-2.6
		c0.2-1.1,0.7-1.6,1.4-2.1c0.3-0.2,0.7-0.3,1-0.4L59.6,362.6z"/>
	<path fill="#4D4D4F" d="M59.6,382.4c0.6-0.2,1.4-0.2,1.9-0.1c0.5,0.1,1,0.4,1.2,0.8c0.2,0.4,0.3,1.1,0.4,1.7c0,0.3,0,0.7-0.1,1.1
		c-0.2,0.8-0.4,1.3-0.8,1.6c-0.5,0.3-0.9,0.7-1.5,0.8c-0.6,0.1-1.2,0.4-2,0.4c-0.8,0.1-1.4,0-2-0.8c-0.6-0.8-0.6-1.5-0.4-2.6
		c0.2-1.1,0.7-1.7,1.4-2.1c0.3-0.2,0.7-0.4,1-0.5L59.6,382.4z"/>
	<path fill="#4D4D4F" d="M59.6,375.8c0.6-0.2,1.4-0.2,1.9-0.1c0.5,0.1,1,0.5,1.2,0.8c0.2,0.4,0.3,1.1,0.4,1.7c0,0.3,0,0.7-0.1,1.1
		c-0.2,0.8-0.4,1.3-0.8,1.6c-0.5,0.3-0.9,0.7-1.5,0.8c-0.6,0.1-1.2,0.4-2,0.4c-0.8,0-1.4-0.1-2-0.8c-0.6-0.8-0.6-1.5-0.4-2.6
		c0.2-1.1,0.7-1.6,1.4-2.1c0.3-0.2,0.7-0.4,1-0.5h0.1L59.6,375.8z"/>
	<path fill="#4D4D4F" d="M59.6,389c0.6-0.2,1.4-0.2,1.9-0.1s1,0.5,1.2,0.8c0.2,0.4,0.3,1.1,0.4,1.7c0,0.3,0,0.7-0.1,1.1
		c-0.2,0.8-0.4,1.3-0.8,1.6c-0.5,0.3-0.9,0.6-1.5,0.8c-0.6,0.1-1.2,0.4-2,0.4c-0.8,0-1.4,0-2-0.8c-0.6-0.8-0.6-1.5-0.4-2.6
		c0.2-1.1,0.7-1.6,1.4-2.1c0.3-0.2,0.7-0.4,1-0.5L59.6,389z"/>
	<path fill="#4D4D4F" d="M63.3,330.2c0-0.8,0.3-1.7,0.8-2.5c0.3-0.5,0.6-0.8,1-1.2s0.7-0.8,1.4-1s1.2-0.1,1.6,0.3
		c0.5,0.4,0.6,1.3,0.4,2.2s-0.6,1.7-0.9,2.2c-0.6,0.7-0.9,1.1-1.7,1.6c-0.5,0.3-0.8,0.3-1.4,0.2c-0.5-0.1-0.8-0.3-1-1
		C63.4,330.7,63.4,330.5,63.3,330.2"/>
	<path fill="#4D4D4F" d="M63.3,336.9c0-0.8,0.3-1.7,0.8-2.5c0.3-0.5,0.5-0.8,1-1.2c0.4-0.4,0.7-0.8,1.4-1c0.7-0.2,1.2-0.1,1.6,0.3
		c0.5,0.4,0.6,1.3,0.4,2.1c-0.2,0.9-0.6,1.8-0.9,2.2c-0.6,0.7-0.9,1.2-1.7,1.6c-0.5,0.3-0.8,0.3-1.4,0.2c-0.5-0.1-0.8-0.4-1-1
		C63.4,337.4,63.4,337.2,63.3,336.9"/>
	<path fill="#4D4D4F" d="M63.3,343.6c0-0.8,0.3-1.7,0.8-2.5c0.3-0.5,0.6-0.8,1-1.2s0.7-0.8,1.4-1c0.7-0.2,1.2-0.1,1.6,0.3
		c0.5,0.4,0.6,1.3,0.4,2.2s-0.6,1.7-0.9,2.2c-0.6,0.8-0.9,1.2-1.7,1.6c-0.5,0.3-0.8,0.3-1.4,0.2c-0.5-0.1-0.8-0.4-1-0.9
		C63.4,344.1,63.4,343.9,63.3,343.6"/>
	<path fill="#4D4D4F" d="M63.3,350.3c0-0.8,0.3-1.7,0.8-2.5c0.3-0.5,0.6-0.8,1-1.2s0.7-0.8,1.4-1c0.7-0.2,1.2-0.1,1.6,0.3
		c0.5,0.5,0.6,1.3,0.4,2.2s-0.6,1.7-0.9,2.2c-0.7,0.8-0.9,1.2-1.7,1.6c-0.5,0.3-0.8,0.3-1.4,0.2c-0.5-0.1-0.8-0.4-1-1
		C63.4,350.8,63.4,350.5,63.3,350.3"/>
	<path fill="#4D4D4F" d="M63.3,357c0-0.8,0.3-1.8,0.8-2.5c0.3-0.5,0.5-0.8,1-1.2c0.4-0.4,0.7-0.8,1.4-1c0.7-0.2,1.2-0.1,1.6,0.3
		c0.5,0.4,0.6,1.3,0.4,2.1c-0.2,0.9-0.6,1.8-0.9,2.3c-0.6,0.7-0.9,1.1-1.7,1.6c-0.5,0.3-0.8,0.3-1.4,0.2c-0.5-0.1-0.8-0.4-1-1
		C63.4,357.5,63.4,357.2,63.3,357"/>
	<path fill="#4D4D4F" d="M63.3,363.6c0-0.8,0.3-1.7,0.8-2.5c0.3-0.5,0.6-0.8,1-1.2s0.7-0.8,1.4-1c0.7-0.2,1.2-0.1,1.6,0.3
		c0.5,0.4,0.6,1.3,0.4,2.2s-0.6,1.7-0.9,2.3c-0.6,0.8-0.9,1.2-1.7,1.6c-0.5,0.3-0.8,0.3-1.4,0.2c-0.5-0.1-0.8-0.4-1-1
		C63.4,364.2,63.4,363.9,63.3,363.6"/>
	<path fill="#4D4D4F" d="M63.3,370.3c0-0.8,0.3-1.7,0.8-2.4c0.3-0.5,0.5-0.8,1-1.2c0.4-0.4,0.7-0.8,1.4-1c0.7-0.2,1.2-0.1,1.6,0.4
		c0.5,0.4,0.6,1.3,0.4,2.1c-0.2,0.9-0.6,1.8-0.9,2.2c-0.7,0.8-0.9,1.2-1.7,1.6c-0.5,0.3-0.8,0.3-1.4,0.2c-0.5-0.1-0.8-0.4-1-1
		C63.4,370.9,63.4,370.6,63.3,370.3"/>
	<path fill="#4D4D4F" d="M63.3,377c0-0.8,0.3-1.7,0.8-2.5c0.3-0.5,0.5-0.8,1-1.2c0.4-0.4,0.7-0.8,1.4-1c0.7-0.2,1.2-0.1,1.6,0.3
		c0.5,0.4,0.6,1.3,0.4,2.2c-0.2,0.9-0.6,1.7-0.9,2.2c-0.6,0.7-0.9,1.2-1.7,1.6c-0.5,0.3-0.8,0.3-1.4,0.2c-0.5-0.1-0.8-0.4-1-0.9
		C63.4,377.6,63.4,377.3,63.3,377"/>
	<path fill="#4D4D4F" d="M63.3,383.7c0-0.8,0.3-1.7,0.8-2.4c0.3-0.5,0.6-0.8,1-1.2s0.7-0.8,1.4-1c0.7-0.2,1.2-0.1,1.6,0.3
		c0.5,0.4,0.6,1.3,0.4,2.2s-0.6,1.7-0.9,2.2c-0.6,0.8-0.9,1.2-1.7,1.6c-0.5,0.3-0.8,0.3-1.4,0.2c-0.5-0.1-0.8-0.4-1-0.9
		C63.4,384.3,63.4,384,63.3,383.7"/>
	<path fill="#4D4D4F" d="M63.4,390.1c-0.1-0.8,0.3-1.7,0.7-2.5c0.3-0.5,0.6-0.8,1-1.2s0.7-0.8,1.4-1c0.7-0.2,1.2-0.1,1.6,0.3
		c0.5,0.4,0.6,1.3,0.4,2.2s-0.5,1.7-1,2.3c-0.6,0.8-0.9,1.1-1.7,1.6c-0.5,0.3-0.8,0.3-1.4,0.2c-0.5-0.1-0.8-0.4-1-0.9
		C63.5,390.6,63.4,390.3,63.4,390.1"/>
	<path fill="#4D4D4F" d="M69.7,333.3c0.3-0.1,0.3,0,0.3,0c0.1,0.2,0.1,0.5,0.2,0.9c0.1,0.9,0.1,1.3,0,2.2c-0.1,0.8-0.2,1.7-0.3,2.4
		c-0.1,0.7-0.3,0.8-0.6,0.9c0,0-0.2,0.1-0.3-0.1c-0.4-0.3-0.5-0.6-0.4-1.1c0.2-1,0.4-1.9,0.5-2.6c0.1-0.8,0.2-1.7,0.3-2.3
		C69.4,333.5,69.5,333.4,69.7,333.3"/>
	<path fill="#4D4D4F" d="M69.7,340.1c0.3-0.1,0.3,0,0.3,0.1c0.1,0.2,0.1,0.5,0.2,0.9c0.1,0.9,0.1,1.4,0,2.2
		c-0.1,0.8-0.2,1.6-0.3,2.4c-0.1,0.7-0.3,0.8-0.6,0.9c-0.1,0-0.2,0-0.4-0.1c-0.4-0.3-0.4-0.6-0.4-1c0.2-1,0.4-1.9,0.5-2.6
		c0.1-0.8,0.2-1.7,0.3-2.3C69.4,340.3,69.5,340.2,69.7,340.1"/>
	<path fill="#4D4D4F" d="M69.8,346.5c0.2-0.1,0.3,0,0.3,0c0.1,0.2,0.1,0.5,0.2,0.9c0.1,0.9,0.1,1.4,0,2.2c0,0.8-0.2,1.6-0.3,2.4
		c-0.1,0.7-0.3,0.9-0.6,1c0,0-0.2,0.1-0.4-0.1c-0.3-0.3-0.4-0.6-0.4-1.1c0.2-1,0.4-1.9,0.5-2.6c0.1-0.8,0.2-1.6,0.3-2.3
		C69.5,346.8,69.6,346.6,69.8,346.5"/>
	<path fill="#4D4D4F" d="M69.7,353.3c0.3-0.1,0.3,0,0.3,0c0.1,0.2,0.2,0.5,0.2,0.9c0.1,0.9,0.1,1.4,0,2.2c0,0.8-0.2,1.6-0.3,2.4
		c-0.1,0.7-0.3,0.8-0.6,0.9c-0.1,0-0.2,0-0.4-0.1c-0.4-0.3-0.4-0.6-0.4-1c0.2-1,0.4-1.9,0.5-2.6c0.1-0.8,0.2-1.6,0.3-2.3
		C69.4,353.5,69.6,353.3,69.7,353.3"/>
	<path fill="#4D4D4F" d="M69.7,359.8c0.3-0.1,0.3,0,0.3,0c0.1,0.2,0.2,0.5,0.2,1c0.1,0.9,0.1,1.4,0,2.2c0,0.8-0.2,1.6-0.3,2.4
		c-0.1,0.7-0.3,0.9-0.6,1c-0.1,0-0.2,0.1-0.4-0.1c-0.4-0.3-0.4-0.6-0.4-1c0.2-1,0.4-1.9,0.5-2.6c0.1-0.8,0.2-1.6,0.3-2.3
		C69.4,360,69.6,359.9,69.7,359.8"/>
	<path fill="#4D4D4F" d="M69.7,366.6c0.3-0.1,0.3,0,0.3,0.1c0.1,0.2,0.2,0.5,0.2,0.9c0.1,0.9,0.1,1.4,0,2.2c0,0.8-0.2,1.6-0.3,2.4
		c-0.1,0.6-0.3,0.8-0.6,0.9c-0.1,0-0.2,0-0.4-0.1c-0.4-0.3-0.4-0.6-0.4-1c0.2-1,0.4-1.9,0.5-2.6c0.1-0.8,0.2-1.6,0.3-2.3
		C69.4,366.8,69.6,366.7,69.7,366.6"/>
	<path fill="#4D4D4F" d="M69.7,373.3c0.3-0.1,0.3,0,0.3,0c0.1,0.2,0.2,0.5,0.2,0.9c0.1,0.9,0.1,1.3,0,2.2c0,0.8-0.2,1.6-0.3,2.4
		c-0.1,0.7-0.3,0.8-0.6,1c-0.1,0-0.2,0-0.4-0.1c-0.4-0.3-0.4-0.6-0.4-1.1c0.2-1,0.4-1.9,0.5-2.6c0.1-0.8,0.2-1.6,0.3-2.3
		C69.4,373.5,69.6,373.3,69.7,373.3"/>
	<path fill="#4D4D4F" d="M69.7,379.9c0.3-0.1,0.3,0,0.3,0.1c0.1,0.2,0.2,0.5,0.2,0.9c0.1,0.9,0.1,1.3,0,2.2c0,0.8-0.2,1.6-0.3,2.4
		c-0.1,0.6-0.3,0.9-0.6,0.9c-0.1,0-0.2,0.1-0.4-0.1c-0.4-0.3-0.4-0.6-0.4-1.1c0.2-1,0.4-1.9,0.5-2.6c0.1-0.8,0.2-1.6,0.3-2.3
		C69.4,380.1,69.6,380,69.7,379.9"/>
	<path fill="#4D4D4F" d="M63.3,323.7c0-0.8,0.3-1.7,0.8-2.5c0.3-0.5,0.6-0.8,1-1.2s0.7-0.8,1.4-1s1.2-0.1,1.6,0.4
		c0.5,0.4,0.6,1.3,0.4,2.2s-0.6,1.7-0.9,2.2c-0.6,0.7-0.9,1.2-1.7,1.6c-0.5,0.3-0.8,0.3-1.4,0.2c-0.5-0.1-0.8-0.4-1-0.9
		C63.4,324.3,63.4,324,63.3,323.7"/>
	<path fill="#4D4D4F" d="M49.3,308.6c0,0.4-0.4,1-0.8,1.3c-1.1,0.9-3,2.1-5,2.5c-0.5,0.1-1.1-0.5-1.4-1c-0.8-1.5-0.8-3.6-0.3-4.8
		c0.3-0.9,1-1.8,1.7-1.6c2.1,0.5,4.3,1.8,5,2.5C49.1,308,49.3,308.2,49.3,308.6"/>
	<path fill="#4D4D4F" d="M58,315c0.4-0.1,1,0.1,1.5,0.4c1.1,0.8,2.8,2.2,3.8,4.1c0.2,0.4-0.2,1.2-0.5,1.7c-1.1,1.2-3.2,1.8-4.5,1.7
		c-0.9-0.1-2-0.5-2-1.1c-0.2-2.2,0.4-4.7,0.8-5.6C57.5,315.4,57.6,315.1,58,315"/>
	<path fill="#4D4D4F" d="M53.9,315.1c0.4,0.1,0.8,0.7,1,1.2c0.5,1.3,1,3.5,0.8,5.6c-0.1,0.5-0.8,0.9-1.4,1c-1.6,0.3-3.6-0.4-4.6-1.2
		c-0.7-0.6-1.3-1.5-1-2.1c1.1-1.9,3-3.6,3.9-4.1C53.3,315.1,53.5,315,53.9,315.1"/>
	<path fill="#4D4D4F" d="M50.8,312.4c0.2,0.4,0.2,1,0.1,1.5c-0.4,1.4-1.2,3.4-2.6,5c-0.4,0.4-1.2,0.2-1.7,0c-1.5-0.7-2.7-2.5-3-3.8
		c-0.2-0.9-0.2-2,0.4-2.3c2-0.9,4.5-1.1,5.5-0.9C50.3,312,50.5,312.1,50.8,312.4"/>
	<path fill="#4D4D4F" d="M62.6,308.6c0-0.4,0.4-1,0.8-1.3c1.1-0.9,3-2,5-2.4c0.5-0.1,1.1,0.5,1.4,1c0.8,1.5,0.7,3.6,0.2,4.8
		c-0.4,0.9-1,1.7-1.7,1.6c-2.1-0.5-4.3-1.8-5-2.6C62.8,309.2,62.6,309,62.6,308.6"/>
	<path fill="#4D4D4F" d="M58.1,302.4c-0.4-0.1-0.8-0.7-1-1.2c-0.5-1.3-1-3.5-0.7-5.6c0-0.5,0.8-0.9,1.4-1c1.6-0.3,3.6,0.4,4.6,1.2
		c0.7,0.6,1.3,1.5,1,2.1c-1.1,1.9-3,3.6-3.9,4.1C58.7,302.4,58.5,302.5,58.1,302.4"/>
	<path fill="#4D4D4F" d="M54,302.3c-0.4,0.2-1.1-0.1-1.5-0.3c-1.2-0.8-2.8-2.2-3.9-4.1c-0.2-0.5,0.1-1.3,0.5-1.7
		c1.1-1.2,3.1-1.9,4.4-1.8c0.9,0.1,2,0.4,2,1.1c0.2,2.2-0.3,4.7-0.7,5.6C54.5,302,54.4,302.2,54,302.3"/>
	<path fill="#4D4D4F" d="M61.4,304.7c-0.2-0.3-0.2-1-0.1-1.5c0.4-1.4,1.3-3.4,2.7-5c0.3-0.4,1.2-0.2,1.7,0c1.5,0.7,2.7,2.5,3,3.8
		c0.2,0.9,0.2,2-0.4,2.3c-2,0.9-4.5,1.1-5.5,0.9C61.9,305.1,61.6,305,61.4,304.7"/>
	<path fill="#4D4D4F" d="M61.4,312.5c0.2-0.3,0.9-0.5,1.4-0.5c1.4-0.1,3.6,0.1,5.5,1c0.5,0.2,0.6,1.1,0.5,1.7
		c-0.2,1.7-1.5,3.4-2.6,4.1c-0.8,0.5-1.9,0.8-2.3,0.3c-1.5-1.7-2.4-4-2.6-5C61.2,313.1,61.1,312.9,61.4,312.5"/>
	<path fill="#4D4D4F" d="M50.6,304.7c-0.3,0.4-0.9,0.6-1.4,0.6c-1.4,0.1-3.6-0.1-5.5-1c-0.5-0.2-0.6-1.1-0.5-1.7
		c0.2-1.7,1.5-3.4,2.5-4.1c0.8-0.5,1.8-0.8,2.3-0.3c1.5,1.6,2.5,4,2.6,5C50.8,304.1,50.8,304.3,50.6,304.7"/>
	<path fill="#4D4D4F" d="M56.1,314.9c3.4,0,6.2-2.8,6.2-6.3s-2.8-6.3-6.2-6.3s-6.2,2.8-6.2,6.3S52.6,314.9,56.1,314.9"/>
	<path fill="#4D4D4F" d="M156.1,388.1c-7.4,4.4-16.2,5.8-24.9,5.8c-11,0-22.4-2.5-30.7-9.9c-8.4-7.3-12.1-17.8-12.1-28.5
		c0-24,20.2-36.1,43.3-36.1c8.9,0,16,1.1,24.6,3.9c0.9,0.3,2.1,0.5,1.7,2.1c-0.6,3.3-1.5,11.5-1.7,16.1h-4.2c-0.1-3-0.2-6-0.6-9
		c-5.2-5.3-12-7.2-19.4-7.2c-8,0-15.7,2.8-21,8.8c-4.8,5.3-6.4,13.1-6.4,20.1c0,8.8,2.3,17.2,8.6,23.8c6.6,6.9,13.8,9.1,23.3,9.1
		c6.4,0,15.2-2.2,20.7-5.3l1.3,1.2L156.1,388.1z"/>
	<path fill="#4D4D4F" d="M183.9,333.2c-0.1-7.5-0.5-8.4-9.2-8.2v-4.4c7.1,0.3,12.7,0.6,16.9,0.6c4.2,0,9.6-0.3,16.8-0.6v4.5
		c-8.8-0.3-9.2,0.5-9.2,8.1v47c0,7.5,0.4,8.4,9.2,8.1v4.5c-7.2-0.3-12.6-0.6-16.8-0.6c-4.2,0-9.8,0.2-16.9,0.6v-4.4
		c8.7,0.2,9.1-0.6,9.2-8.2V333.2z"/>
	<path fill="#4D4D4F" d="M302,334.8l-11.7,22.9l-15.9,33.2l-1.2,2.4h-3.7c-0.2-1-2.5-5.8-3.9-8.7l-24.9-49.8v45.4
		c0,7.5,0.4,8.4,9.2,8.1v4.5c-5.1-0.3-9.1-0.6-12.2-0.6c-3.1,0-7.2,0.2-12.5,0.6v-4.5c8.8,0.3,9.2-0.5,9.2-8.1v-47
		c0-7.5-0.4-8.4-9.2-8.1v-4.5c6.4,0.3,10.4,0.6,13.5,0.6c3.2,0,7.1-0.3,12.5-0.6c1.9,4.5,5.6,12.5,8.1,17.1l17.1,34.6
		c1.7-3,3.3-6.1,4.8-9.2c7.9-16.4,17.4-35.8,20.3-42.5c5.3,0.3,9.3,0.6,12.5,0.6c3.3,0,7.2-0.3,12.6-0.6v4.5
		c-8.8-0.3-9.2,0.5-9.2,8.1v47c0,7.5,0.4,8.4,9.2,8.1v4.5c-7.1-0.3-12.6-0.6-16.8-0.6c-4.2,0-9.7,0.2-16.9,0.6v-4.4
		c8.7,0.2,9.1-0.6,9.2-8.2L302,334.8L302,334.8z"/>
	<path fill="#4D4D4F" d="M419.4,334.8l-11.7,22.9l-15.9,33.2l-1.2,2.4h-3.7c-0.2-1-2.5-5.8-3.9-8.7l-24.9-49.8v45.4
		c0,7.5,0.4,8.4,9.2,8.1v4.5c-5.1-0.3-9.1-0.6-12.2-0.6c-3.1,0-7.2,0.2-12.5,0.6v-4.5c8.8,0.3,9.2-0.5,9.2-8.1v-47
		c0-7.5-0.4-8.4-9.2-8.1v-4.5c6.4,0.3,10.4,0.6,13.5,0.6c3.3,0,7.1-0.3,12.5-0.6c1.9,4.5,5.6,12.5,8.1,17.1l17.1,34.6
		c1.7-3,3.2-6.1,4.8-9.2c7.9-16.4,17.4-35.8,20.3-42.5c5.3,0.3,9.3,0.6,12.5,0.6c3.3,0,7.2-0.3,12.6-0.6v4.5
		c-8.8-0.3-9.2,0.5-9.2,8.1v47c0,7.5,0.4,8.4,9.2,8.1v4.5c-7.1-0.3-12.6-0.6-16.8-0.6s-9.7,0.2-16.9,0.6v-4.4
		c8.7,0.2,9.1-0.6,9.2-8.2L419.4,334.8L419.4,334.8z"/>
	<path fill="#4D4D4F" d="M499,354.9c8.6-13.6,16.2-25.1,20.4-33.8h8.3v2l-4.4,6L511.8,346l-4.9,7.5l-3.3,6.7
		c-0.6,1.4-0.6,3.2-0.6,4.9V380c0,7.5,0.4,8.4,9.2,8.1v4.5c-7.2-0.3-12.6-0.6-16.8-0.6c-4.2,0-9.7,0.2-16.9,0.6v-4.4
		c8.7,0.2,9.1-0.6,9.2-8.2v-13.2c0-2.2-0.4-4.4-1-5.6c-1.1-2.4-2.5-4.5-3.8-6.8L472,337.5c-1.6-2.2-3.8-5-5.7-7
		c-2.5-2.6-5.6-3.4-8.5-3.4v-3.9l17.2-3.8c5.9,3.2,9.2,8.7,12.3,14.2L499,354.9z"/>
	<path fill="#4D4D4F" d="M581.5,380.1c0,7.5,0.4,8.4,9.2,8.1v4.5c-7.2-0.3-12.6-0.6-16.8-0.6c-4.2,0-9.8,0.2-16.9,0.6v-4.4
		c8.7,0.2,9.1-0.6,9.2-8.2v-52.5h-15.9c-2.6,0.3-3.6,1-4.9,3.3c-0.2,1.8-0.3,4.4-0.6,7h-4.3c0.2-5.1-0.4-11.8-0.3-17.4
		c14.4,0.3,25.3,0.6,33.9,0.6c8.6,0,19.3-0.3,34.2-0.6c-0.3,4.7-0.9,11.1-1.4,17.4h-4.2c0-1.5,0-2.9-0.2-4.4c-0.8-5.2,0.3-5.9-5.7-6
		h-15.3V380.1L581.5,380.1z"/>
</g>
</svg>
