<svg xmlns="http://www.w3.org/2000/svg" xmlns:xlink="http://www.w3.org/1999/xlink" version="1.1" width="605" height="101" enable-background="new 0 291.5 612 108" xml:space="preserve"><rect id="backgroundrect" width="100%" height="100%" x="0" y="0" fill="none" stroke="none"/>

<g class="currentLayer"><title>Layer 1</title><g id="svg_1" class="selected" fill="#7ac142" fill-opacity="1">
	<path fill="#7ac142" d="M23.499999904632567,45.50001220703126 v-45.3 h2 v45.2 v0.1 l0.2,13.8 l-0.5,5.6 c0,0 -0.5,4 -2.8,6.2 c0,0 -1.5,1.8 -3.1,3.2 c-1.6,1.4 -2.2,3.2 -2.2,3.2 l-0.5,3.2 l3.4,-4.6 c3.5,-3.7 6.8,-6.7 7.3,-12.2 l0.1,-1.7000000000000002 v-62 h2.1 v64.8 v0.6000000000000001 c0,0 -0.30000000000000004,8.9 -3.7,16.7 c0,0 -1.3,2.8 -2.7,5.1 c-1.8,3 -4.2,4.6 -6.2,9.2 l-0.2,3.1 l-2.6,0.1 l-0.2,-6.4 c0,0 -0.4,-1.2 -0.6000000000000001,-3.3 c-0.2,-2.1 -1.3,-4 -1.3,-4 l-0.2,-0.30000000000000004 C-9.536743172944284e-8,72.10001220703123 1.199999904632568,60.00001220703126 1.199999904632568,60.00001220703126 L1.0999999046325684,58.20001220703125 v-58 h1.9 L3.0999999046325684,52.70001220703125 l0.2,3.6 c0,0 -0.4,4.4 2.7,7.8 c2.2,2.4 2.4,2.3 4.2,4.4 c1.7000000000000002,2 2.8,4.7 2.8,4.7 L13.099999904632568,70.70001220703125 l-0.9,-2.5 l-1.4,-1.8 c-6.8,-5.7 -5.8,-12.9 -5.8,-12.9 l-0.1,-53.2 h1.8 v37.1 l0.6000000000000001,3.2 c0,0 1.4,4.3 2.8,7.7 c2.3,5.6 4.1,8.9 4.1,8.9 s-0.30000000000000004,-4.6 -0.9,-5.6 c-0.6000000000000001,-1.1 -1.8,-3.9 -1.8,-3.9 c-1.5,-3.7 -2.1,-7 -2.1,-7 l-0.6000000000000001,-2.6 l-0.1,-2 v-35.8 h1.8 c0,0 0,20.6 0,23 c0,4.2 1,5.8 1.8,7.4 c0.7000000000000001,1.6 1.5,4.5 1.5,4.5 s0.6000000000000001,-1.7000000000000002 -0.7000000000000001,-7.1 c-0.4,-1.4 -0.7000000000000001,-6.5 -0.7000000000000001,-6.5 v-21.2 h1.8 v14 c0,0 0.6000000000000001,6 1.2,4.4 c0.6000000000000001,-1.7000000000000002 0.7000000000000001,-3.4 0.7000000000000001,-3.4 v-15.1 h1.9 v32.2 c0,0 -0.2,4.1 -1,6.6 c-1,3 -0.6000000000000001,4.9 -0.6000000000000001,4.9 s1.1,-1.3 2,-4.2 c0.4,-1.4 1.6,-5.7 1.6,-5.7 v-33.8 h1.9 v44.6 c0,0 -0.5,3.7 -2.4,9.1 c-1.3,3.8 -1.9,4.5 -2.2,5.8 c-0.4,1.9 -0.2,3.8 -0.2,3.8 l2.6,-5.9 c0.6000000000000001,-1.3 1.5,-3.1 1.5,-3.1 s0.6000000000000001,-1.5 1.5,-4.2 L23.499999904632567,45.50001220703126 z" id="svg_2" fill-opacity="1"/>
	<path fill="#7ac142" d="M50.29999990463257,35.70001220703125 c0.6000000000000001,0.2 1.3,0.6000000000000001 1.9,1.3 c0.30000000000000004,0.30000000000000004 0.4,0.7000000000000001 0.6000000000000001,1.3 c0.2,1.1 0.2,1.8 -0.4,2.6 c-0.6000000000000001,0.8 -1.2,0.9 -2,0.8 c-0.9,0 -1.4,-0.30000000000000004 -2,-0.4 c-0.6000000000000001,-0.1 -1.1,-0.5 -1.5,-0.8 c-0.4,-0.30000000000000004 -0.6000000000000001,-0.8 -0.8,-1.6 c-0.2,-0.9 -0.1,-1.4 0.1,-2.1 c0.1,-0.6000000000000001 0.2,-0.9 0.7000000000000001,-1.3 c0.5,-0.30000000000000004 0.9,-0.4 1.6,-0.30000000000000004 c0.30000000000000004,0 0.7000000000000001,0.1 1,0.2 L50.29999990463257,35.70001220703125 z" id="svg_3" fill-opacity="1"/>
	<path fill="#7ac142" d="M39.59999990463257,26.20001220703125 c0.1,0.7000000000000001 0.2,1.5 0.30000000000000004,2.3 c0.2,1.3 0.4,2.1 0.5,2.6 c0,0.4 0,0.8 -0.4,1 c-0.2,0.2 -0.30000000000000004,0.1 -0.30000000000000004,0.1 c-0.30000000000000004,-0.1 -0.5,-0.30000000000000004 -0.6000000000000001,-1 c-0.1,-0.8 -0.30000000000000004,-1.6 -0.30000000000000004,-2.4 c0,-0.8 -0.1,-1.2 0,-2.1 c0,-0.4 0.1,-0.8 0.2,-0.9 c0,0 0.1,-0.1 0.30000000000000004,0 C39.49999990463257,25.800012207031273 39.59999990463257,25.90001220703124 39.59999990463257,26.20001220703125 " id="svg_4" fill-opacity="1"/>
	<path fill="#7ac142" d="M39.79999990463257,18.50001220703126 v0.8 c0,0.6000000000000001 0.1,1.6 0.30000000000000004,2.7 c0.30000000000000004,1.5 0.4,2.2 0.2,2.8 c-0.1,0.2 -0.2,0.30000000000000004 -0.30000000000000004,0.4 c-0.30000000000000004,0.30000000000000004 -0.5,0.2 -0.7000000000000001,-0.1 c-0.30000000000000004,-0.4 -0.4,-0.9 -0.5,-1.7000000000000002 l-0.1,-1.3 c-0.1,-1.3 -0.1,-2.1 0.1,-2.9 c0.1,-0.5 0.1,-0.9 0.4,-1.2 c0.1,-0.1 0.1,-0.1 0.30000000000000004,-0.1 C39.69999990463257,17.90001220703124 39.79999990463257,18.100012207031227 39.79999990463257,18.50001220703126 " id="svg_5" fill-opacity="1"/>
	<path fill="#7ac142" d="M39.59999990463257,32.90001220703124 c0.1,0.6000000000000001 0.2,1.5 0.30000000000000004,2.3 c0.2,1.3 0.4,2.1 0.5,2.6 c0.1,0.4 0,0.8 -0.4,1.1 c-0.2,0.1 -0.30000000000000004,0.1 -0.4,0.1 c-0.30000000000000004,-0.1 -0.5,-0.30000000000000004 -0.6000000000000001,-0.9 c-0.1,-0.8 -0.30000000000000004,-1.6 -0.30000000000000004,-2.4 s0,-1.3 0,-2.2 c0,-0.4 0.1,-0.8 0.2,-0.9 c0,-0.1 0.1,-0.1 0.30000000000000004,-0.1 C39.49999990463257,32.50001220703126 39.59999990463257,32.60001220703123 39.59999990463257,32.90001220703124 " id="svg_6" fill-opacity="1"/>
	<path fill="#7ac142" d="M50.29999990463257,29.20001220703125 c0.6000000000000001,0.2 1.3,0.6000000000000001 1.9,1.3 c0.30000000000000004,0.30000000000000004 0.4,0.7000000000000001 0.6000000000000001,1.3 c0.2,1.1 0.2,1.8 -0.4,2.6 c-0.6000000000000001,0.8 -1.2,0.9 -2,0.8 c-0.9,0 -1.4,-0.30000000000000004 -2,-0.4 c-0.6000000000000001,-0.1 -1.1,-0.5 -1.5,-0.8 c-0.4,-0.30000000000000004 -0.6000000000000001,-0.8 -0.8,-1.6 c-0.2,-0.8 -0.1,-1.4 0.1,-2 c0.1,-0.6000000000000001 0.2,-0.9 0.7000000000000001,-1.3 c0.5,-0.30000000000000004 0.9,-0.4 1.6,-0.30000000000000004 c0.30000000000000004,0 0.7000000000000001,0.1 1,0.2 L50.29999990463257,29.20001220703125 z" id="svg_7" fill-opacity="1"/>
	<path fill="#7ac142" d="M50.29999990463257,48.90001220703124 c0.6000000000000001,0.2 1.3,0.6000000000000001 1.9,1.3 c0.30000000000000004,0.30000000000000004 0.4,0.7000000000000001 0.6000000000000001,1.3 c0.2,1.1 0.2,1.8 -0.4,2.6 c-0.6000000000000001,0.8 -1.2,0.9 -2,0.8 c-0.9,0 -1.4,-0.30000000000000004 -2,-0.4 c-0.6000000000000001,-0.1 -1.1,-0.5 -1.5,-0.8 c-0.4,-0.30000000000000004 -0.6000000000000001,-0.8 -0.8,-1.6 c-0.2,-0.8 -0.1,-1.4 0.1,-2 c0.1,-0.6000000000000001 0.2,-0.9 0.7000000000000001,-1.3 c0.5,-0.30000000000000004 0.9,-0.4 1.6,-0.30000000000000004 c0.30000000000000004,0 0.7000000000000001,0.1 1,0.2 L50.29999990463257,48.90001220703124 z" id="svg_8" fill-opacity="1"/>
	<path fill="#7ac142" d="M50.29999990463257,42.30001220703127 c0.6000000000000001,0.2 1.3,0.6000000000000001 1.9,1.3 c0.30000000000000004,0.30000000000000004 0.4,0.7000000000000001 0.6000000000000001,1.3 c0.2,1.1 0.2,1.8 -0.4,2.6 c-0.6000000000000001,0.8 -1.2,0.9 -2,0.8 c-0.9,0 -1.4,-0.30000000000000004 -2,-0.4 c-0.6000000000000001,-0.1 -1.1,-0.5 -1.5,-0.8 c-0.4,-0.30000000000000004 -0.6000000000000001,-0.8 -0.8,-1.6 c-0.2,-0.8 -0.1,-1.4 0.1,-2 c0.1,-0.6000000000000001 0.2,-0.9 0.7000000000000001,-1.3 s0.9,-0.4 1.6,-0.4 c0.4,0 0.7000000000000001,0.1 1,0.2 L50.29999990463257,42.30001220703127 z" id="svg_9" fill-opacity="1"/>
	<path fill="#7ac142" d="M50.29999990463257,62.10001220703123 c0.6000000000000001,0.2 1.3,0.6000000000000001 1.9,1.3 c0.30000000000000004,0.30000000000000004 0.4,0.7000000000000001 0.6000000000000001,1.3 c0.2,1.1 0.2,1.8 -0.4,2.6 c-0.6000000000000001,0.8 -1.2,0.9 -2,0.8 c-0.9,-0.1 -1.4,-0.30000000000000004 -2,-0.4 c-0.6000000000000001,-0.1 -1.1,-0.5 -1.5,-0.8 c-0.4,-0.30000000000000004 -0.6000000000000001,-0.8 -0.8,-1.6 c-0.2,-0.8 -0.1,-1.4 0.1,-2 c0.1,-0.6000000000000001 0.2,-0.9 0.7000000000000001,-1.3 c0.5,-0.30000000000000004 0.9,-0.4 1.6,-0.30000000000000004 c0.30000000000000004,0 0.7000000000000001,0.1 1,0.1 L50.29999990463257,62.10001220703123 z" id="svg_10" fill-opacity="1"/>
	<path fill="#7ac142" d="M50.29999990463257,55.50001220703126 c0.6000000000000001,0.2 1.3,0.6000000000000001 1.9,1.3 c0.30000000000000004,0.30000000000000004 0.4,0.8 0.6000000000000001,1.3 c0.2,1.1 0.2,1.8 -0.4,2.6 c-0.6000000000000001,0.8 -1.2,0.9 -2,0.8 c-0.9,-0.1 -1.4,-0.30000000000000004 -2,-0.4 c-0.6000000000000001,-0.1 -1,-0.5 -1.5,-0.8 c-0.4,-0.30000000000000004 -0.6000000000000001,-0.8 -0.8,-1.6 c-0.2,-0.9 -0.1,-1.4 0.1,-2.1 c0.1,-0.6000000000000001 0.2,-0.9 0.7000000000000001,-1.3 c0.5,-0.30000000000000004 0.9,-0.4 1.6,-0.30000000000000004 c0.30000000000000004,0 0.7000000000000001,0.1 1,0.2 L50.29999990463257,55.50001220703126 z" id="svg_11" fill-opacity="1"/>
	<path fill="#7ac142" d="M50.29999990463257,75.30001220703127 c0.6000000000000001,0.2 1.3,0.6000000000000001 1.9,1.3 c0.30000000000000004,0.30000000000000004 0.4,0.7000000000000001 0.6000000000000001,1.3 c0.2,1.1 0.2,1.8 -0.4,2.6 c-0.6000000000000001,0.8 -1.2,0.9 -2,0.8 c-0.9,-0.1 -1.4,-0.30000000000000004 -2,-0.4 c-0.6000000000000001,-0.1 -1.1,-0.5 -1.5,-0.8 c-0.4,-0.30000000000000004 -0.6000000000000001,-0.8 -0.8,-1.6 c-0.2,-0.9 -0.1,-1.4 0.1,-2.1 c0.1,-0.6000000000000001 0.2,-0.9 0.7000000000000001,-1.3 c0.5,-0.30000000000000004 0.9,-0.4 1.6,-0.30000000000000004 c0.30000000000000004,0 0.7000000000000001,0.1 1,0.2 L50.29999990463257,75.30001220703127 z" id="svg_12" fill-opacity="1"/>
	<path fill="#7ac142" d="M50.29999990463257,68.70001220703125 c0.6000000000000001,0.2 1.3,0.6000000000000001 1.9,1.3 c0.30000000000000004,0.30000000000000004 0.4,0.7000000000000001 0.6000000000000001,1.3 c0.2,1.1 0.2,1.8 -0.4,2.6 c-0.6000000000000001,0.8 -1.2,0.9 -2,0.8 c-0.9,0 -1.4,-0.30000000000000004 -2,-0.4 c-0.6000000000000001,-0.1 -1.1,-0.5 -1.5,-0.8 c-0.4,-0.30000000000000004 -0.6000000000000001,-0.8 -0.8,-1.6 c-0.2,-0.9 -0.1,-1.4 0.1,-2.1 c0.1,-0.6000000000000001 0.2,-0.9 0.7000000000000001,-1.3 c0.5,-0.4 0.9,-0.4 1.6,-0.30000000000000004 c0.30000000000000004,0 0.7000000000000001,0 1,0.2 L50.29999990463257,68.70001220703125 z" id="svg_13" fill-opacity="1"/>
	<path fill="#7ac142" d="M50.29999990463257,88.40001220703124 c0.6000000000000001,0.2 1.3,0.6000000000000001 1.9,1.3 c0.30000000000000004,0.30000000000000004 0.4,0.7000000000000001 0.6000000000000001,1.3 c0.2,1.1 0.2,1.8 -0.4,2.6 c-0.6000000000000001,0.8 -1.2,0.9 -2,0.8 c-0.9,0 -1.4,-0.30000000000000004 -2,-0.4 c-0.6000000000000001,-0.1 -1,-0.5 -1.5,-0.8 c-0.4,-0.30000000000000004 -0.6000000000000001,-0.8 -0.8,-1.6 c-0.2,-0.9 -0.1,-1.4 0.1,-2 c0.1,-0.6000000000000001 0.2,-0.9 0.7000000000000001,-1.3 s0.9,-0.4 1.6,-0.4 c0.4,0 0.7000000000000001,0.1 1,0.2 L50.29999990463257,88.40001220703124 z" id="svg_14" fill-opacity="1"/>
	<path fill="#7ac142" d="M50.29999990463257,81.90001220703124 c0.6000000000000001,0.2 1.3,0.6000000000000001 1.9,1.3 c0.30000000000000004,0.30000000000000004 0.4,0.7000000000000001 0.6000000000000001,1.3 c0.2,1.1 0.2,1.8 -0.4,2.6 c-0.6000000000000001,0.8 -1.2,0.9 -2,0.9 c-0.9,-0.1 -1.4,-0.30000000000000004 -2,-0.4 c-0.6000000000000001,-0.1 -1,-0.5 -1.5,-0.8 c-0.4,-0.30000000000000004 -0.6000000000000001,-0.8 -0.8,-1.6 s-0.1,-1.4 0.1,-2.1 c0.1,-0.6000000000000001 0.2,-0.9 0.7000000000000001,-1.3 s0.9,-0.4 1.6,-0.4 c0.30000000000000004,0 0.7000000000000001,0.1 1,0.2 L50.29999990463257,81.90001220703124 z" id="svg_15" fill-opacity="1"/>
	<path fill="#7ac142" d="M50.29999990463257,95.00001220703126 c0.6000000000000001,0.2 1.3,0.6000000000000001 1.9,1.3 c0.30000000000000004,0.30000000000000004 0.4,0.7000000000000001 0.6000000000000001,1.3 c0.2,1.1 0.2,1.8 -0.4,2.6 c-0.6000000000000001,0.8 -1.2,0.9 -2,0.9 c-0.9,-0.1 -1.4,-0.30000000000000004 -2,-0.4 c-0.6000000000000001,-0.1 -1.1,-0.5 -1.5,-0.8 c-0.4,-0.30000000000000004 -0.6000000000000001,-0.8 -0.8,-1.6 c-0.2,-0.9 -0.1,-1.4 0.1,-2 c0.1,-0.6000000000000001 0.2,-0.9 0.7000000000000001,-1.3 c0.5,-0.4 0.9,-0.4 1.6,-0.4 c0.4,0 0.7000000000000001,0.1 1,0.2 h0.2 L50.29999990463257,95.00001220703126 z" id="svg_16" fill-opacity="1"/>
	<path fill="#7ac142" d="M45.49999990463257,36.80001220703127 c-0.1,0.6000000000000001 -0.5,0.8 -1,1 c-0.6000000000000001,0.1 -0.9,0.1 -1.4,-0.2 c-0.5,-0.30000000000000004 -0.9,-0.5 -1.2,-0.9 c-0.30000000000000004,-0.4 -0.8,-0.8 -1.1,-1.7000000000000002 c-0.30000000000000004,-0.8 -0.6000000000000001,-1.7000000000000002 -0.5,-2.5 c0.2,-0.8 0.7000000000000001,-1.2 1.2,-1.3 s1.3,0.1 1.7000000000000002,0.5 s0.8,0.8 1.2,1.2 c0.5,0.6000000000000001 1.2,2 1.2,3.1 C45.59999990463257,36.20001220703125 45.59999990463257,36.50001220703126 45.49999990463257,36.80001220703127 " id="svg_17" fill-opacity="1"/>
	<path fill="#7ac142" d="M45.49999990463257,43.50001220703126 c-0.1,0.6000000000000001 -0.5,0.8 -1,1 c-0.6000000000000001,0.1 -0.9,0.1 -1.4,-0.2 c-0.5,-0.30000000000000004 -0.9,-0.6000000000000001 -1.2,-0.9 c-0.30000000000000004,-0.4 -0.8,-0.8 -1.1,-1.7000000000000002 c-0.30000000000000004,-0.8 -0.6000000000000001,-1.7000000000000002 -0.5,-2.6 c0.2,-0.8 0.7000000000000001,-1.2 1.2,-1.3 s1.3,0.1 1.7000000000000002,0.5 s0.8,0.8 1.2,1.2 c0.5,0.6000000000000001 1.2,2 1.2,3.1 C45.59999990463257,42.90001220703124 45.59999990463257,43.20001220703125 45.49999990463257,43.50001220703126 " id="svg_18" fill-opacity="1"/>
	<path fill="#7ac142" d="M45.49999990463257,50.20001220703125 c-0.1,0.6000000000000001 -0.5,0.8 -1,1 c-0.6000000000000001,0.1 -0.9,0.1 -1.4,-0.2 c-0.5,-0.30000000000000004 -0.9,-0.5 -1.2,-0.9 c-0.30000000000000004,-0.4 -0.8,-0.8 -1.1,-1.7000000000000002 c-0.30000000000000004,-0.8 -0.6000000000000001,-1.7000000000000002 -0.5,-2.5 c0.2,-0.8 0.7000000000000001,-1.2 1.2,-1.3 s1.3,0.1 1.7000000000000002,0.5 s0.8,0.8 1.2,1.2 c0.30000000000000004,0.30000000000000004 0.6000000000000001,0.9 0.8,1.4 c0.30000000000000004,0.5 0.4,1.1 0.30000000000000004,1.7000000000000002 C45.59999990463257,49.60001220703123 45.59999990463257,49.90001220703124 45.49999990463257,50.20001220703125 " id="svg_19" fill-opacity="1"/>
	<path fill="#7ac142" d="M45.49999990463257,56.90001220703124 c-0.1,0.6000000000000001 -0.5,0.8 -1,0.9 c-0.6000000000000001,0.1 -0.9,0.1 -1.4,-0.2 c-0.5,-0.30000000000000004 -0.9,-0.6000000000000001 -1.2,-0.9 c-0.30000000000000004,-0.4 -0.8,-0.8 -1.1,-1.6 c-0.30000000000000004,-0.8 -0.6000000000000001,-1.7000000000000002 -0.5,-2.5 c0.2,-0.8 0.7000000000000001,-1.2 1.2,-1.3 s1.3,0.1 1.7000000000000002,0.5 s0.8,0.8 1.2,1.2 c0.5,0.6000000000000001 1.2,2 1.2,3.1 C45.59999990463257,56.30001220703127 45.59999990463257,56.60001220703123 45.49999990463257,56.90001220703124 " id="svg_20" fill-opacity="1"/>
	<path fill="#7ac142" d="M45.49999990463257,63.60001220703123 c-0.1,0.6000000000000001 -0.5,0.8 -1,0.9 c-0.6000000000000001,0.1 -0.9,0.1 -1.4,-0.1 c-0.5,-0.30000000000000004 -0.9,-0.6000000000000001 -1.2,-0.9 c-0.30000000000000004,-0.4 -0.8,-0.8 -1.1,-1.7000000000000002 c-0.30000000000000004,-0.8 -0.6000000000000001,-1.7000000000000002 -0.5,-2.5 c0.2,-0.8 0.7000000000000001,-1.2 1.2,-1.3 c0.5,-0.1 1.3,0.1 1.7000000000000002,0.5 c0.4,0.4 0.8,0.8 1.2,1.2 c0.5,0.6000000000000001 1.2,2 1.2,3.1 C45.59999990463257,63.00001220703126 45.59999990463257,63.30001220703127 45.49999990463257,63.60001220703123 " id="svg_21" fill-opacity="1"/>
	<path fill="#7ac142" d="M45.49999990463257,70.30001220703127 c-0.1,0.6000000000000001 -0.5,0.8 -1,0.9 c-0.6000000000000001,0.1 -0.9,0.1 -1.4,-0.2 c-0.5,-0.30000000000000004 -0.9,-0.5 -1.2,-0.9 c-0.30000000000000004,-0.4 -0.8,-0.8 -1.1,-1.7000000000000002 c-0.30000000000000004,-0.8 -0.6000000000000001,-1.7000000000000002 -0.5,-2.5 c0.2,-0.8 0.7000000000000001,-1.2 1.2,-1.3 s1.3,0.1 1.7000000000000002,0.5 s0.8,0.8 1.2,1.2 c0.5,0.6000000000000001 1.2,2 1.2,3.1 C45.59999990463257,69.70001220703125 45.59999990463257,70.00001220703126 45.49999990463257,70.30001220703127 " id="svg_22" fill-opacity="1"/>
	<path fill="#7ac142" d="M45.49999990463257,77.00001220703126 c-0.1,0.6000000000000001 -0.5,0.8 -1,1 c-0.6000000000000001,0.1 -0.9,0.1 -1.4,-0.2 c-0.5,-0.30000000000000004 -0.9,-0.5 -1.2,-0.9 c-0.30000000000000004,-0.4 -0.8,-0.8 -1.1,-1.7000000000000002 c-0.30000000000000004,-0.8 -0.6000000000000001,-1.7000000000000002 -0.5,-2.5 c0.2,-0.8 0.7000000000000001,-1.2 1.2,-1.3 c0.5,-0.1 1.3,0.1 1.7000000000000002,0.5 c0.4,0.4 0.8,0.8 1.2,1.2 c0.5,0.6000000000000001 1.2,2 1.2,3.1 C45.59999990463257,76.40001220703124 45.59999990463257,76.70001220703125 45.49999990463257,77.00001220703126 " id="svg_23" fill-opacity="1"/>
	<path fill="#7ac142" d="M45.49999990463257,83.70001220703125 c-0.1,0.6000000000000001 -0.5,0.9 -1,1 c-0.6000000000000001,0.1 -0.9,0.1 -1.4,-0.2 c-0.5,-0.30000000000000004 -0.9,-0.6000000000000001 -1.2,-0.9 c-0.30000000000000004,-0.4 -0.8,-0.8 -1.1,-1.7000000000000002 c-0.30000000000000004,-0.8 -0.6000000000000001,-1.7000000000000002 -0.5,-2.5 c0.2,-0.8 0.7000000000000001,-1.2 1.2,-1.3 s1.3,0.1 1.7000000000000002,0.4 c0.4,0.4 0.8,0.8 1.2,1.2 c0.30000000000000004,0.30000000000000004 0.6000000000000001,0.9 0.8,1.4 c0.30000000000000004,0.5 0.4,1.1 0.30000000000000004,1.7000000000000002 C45.59999990463257,83.10001220703123 45.59999990463257,83.40001220703124 45.49999990463257,83.70001220703125 " id="svg_24" fill-opacity="1"/>
	<path fill="#7ac142" d="M45.49999990463257,90.40001220703124 c-0.1,0.6000000000000001 -0.5,0.8 -1,0.9 c-0.6000000000000001,0.1 -0.9,0.1 -1.4,-0.2 c-0.5,-0.30000000000000004 -0.9,-0.5 -1.2,-0.9 c-0.30000000000000004,-0.4 -0.8,-0.8 -1.1,-1.7000000000000002 c-0.30000000000000004,-0.8 -0.6000000000000001,-1.7000000000000002 -0.5,-2.5 c0.2,-0.8 0.7000000000000001,-1.2 1.2,-1.3 s1.3,0.1 1.7000000000000002,0.5 s0.8,0.8 1.2,1.2 c0.30000000000000004,0.30000000000000004 0.6000000000000001,0.9 0.8,1.4 c0.30000000000000004,0.5 0.4,1.1 0.30000000000000004,1.7000000000000002 C45.59999990463257,89.80001220703127 45.59999990463257,90.00001220703126 45.49999990463257,90.40001220703124 " id="svg_25" fill-opacity="1"/>
	<path fill="#7ac142" d="M45.399999904632566,96.70001220703125 c-0.2,0.6000000000000001 -0.5,0.8 -1,1 c-0.6000000000000001,0.1 -0.8,0.1 -1.4,-0.2 c-0.6000000000000001,-0.30000000000000004 -0.9,-0.6000000000000001 -1.2,-0.9 c-0.30000000000000004,-0.4 -0.8,-0.8 -1.1,-1.7000000000000002 c-0.30000000000000004,-0.8 -0.6000000000000001,-1.7000000000000002 -0.5,-2.5 c0.2,-0.8 0.7000000000000001,-1.2 1.2,-1.3 s1.3,0.1 1.7000000000000002,0.5 s0.9,0.9 1.2,1.2 c0.30000000000000004,0.30000000000000004 0.6000000000000001,0.9 0.9,1.4 c0.2,0.5 0.4,1.1 0.30000000000000004,1.6 C45.59999990463257,96.10001220703123 45.49999990463257,96.40001220703124 45.399999904632566,96.70001220703125 " id="svg_26" fill-opacity="1"/>
	<path fill="#7ac142" d="M39.59999990463257,39.50001220703126 c0.1,0.7000000000000001 0.2,1.5 0.30000000000000004,2.3 c0.2,1.3 0.4,2.1 0.5,2.6 c0.1,0.4 0,0.8 -0.4,1 c-0.2,0.1 -0.30000000000000004,0.1 -0.4,0.1 c-0.30000000000000004,-0.1 -0.5,-0.30000000000000004 -0.6000000000000001,-1 c-0.1,-0.8 -0.30000000000000004,-1.6 -0.30000000000000004,-2.4 c0,-0.8 0,-1.2 0,-2.2 c0,-0.4 0.1,-0.7000000000000001 0.2,-0.9 c0,0 0.1,-0.1 0.30000000000000004,0 C39.49999990463257,39.10001220703123 39.59999990463257,39.30001220703127 39.59999990463257,39.50001220703126 " id="svg_27" fill-opacity="1"/>
	<path fill="#7ac142" d="M39.59999990463257,46.10001220703123 c0.1,0.7000000000000001 0.1,1.5 0.30000000000000004,2.3 c0.2,1.3 0.4,2.1 0.5,2.6 c0,0.4 -0.1,0.8 -0.4,1 c-0.2,0.2 -0.30000000000000004,0.1 -0.4,0.1 c-0.30000000000000004,-0.1 -0.5,-0.30000000000000004 -0.6000000000000001,-0.9 c-0.1,-0.8 -0.30000000000000004,-1.6 -0.30000000000000004,-2.4 c0,-0.8 -0.1,-1.3 0,-2.2 c0,-0.4 0.1,-0.7000000000000001 0.2,-0.9 c0,-0.1 0.1,-0.1 0.30000000000000004,-0.1 C39.399999904632566,45.70001220703125 39.49999990463257,45.90001220703124 39.59999990463257,46.10001220703123 " id="svg_28" fill-opacity="1"/>
	<path fill="#7ac142" d="M39.59999990463257,52.80001220703127 c0.1,0.6000000000000001 0.1,1.5 0.30000000000000004,2.3 c0.2,1.3 0.4,2.1 0.5,2.6 c0,0.4 -0.1,0.8 -0.4,1 c-0.2,0.1 -0.30000000000000004,0.1 -0.4,0.1 c-0.30000000000000004,-0.1 -0.5,-0.30000000000000004 -0.6000000000000001,-1 c-0.1,-0.8 -0.30000000000000004,-1.6 -0.30000000000000004,-2.4 c0,-0.8 -0.1,-1.2 0,-2.1 c0,-0.4 0.1,-0.8 0.2,-0.9 c0,-0.1 0.1,-0.1 0.30000000000000004,-0.1 C39.399999904632566,52.40001220703124 39.49999990463257,52.50001220703126 39.59999990463257,52.80001220703127 " id="svg_29" fill-opacity="1"/>
	<path fill="#7ac142" d="M39.59999990463257,59.40001220703124 c0.1,0.7000000000000001 0.2,1.5 0.30000000000000004,2.3 c0.2,1.3 0.4,2.1 0.5,2.6 c0.1,0.4 0,0.8 -0.4,1 c-0.2,0.2 -0.30000000000000004,0.1 -0.4,0.1 c-0.30000000000000004,-0.1 -0.5,-0.30000000000000004 -0.6000000000000001,-1 c-0.1,-0.7000000000000001 -0.30000000000000004,-1.6 -0.30000000000000004,-2.4 c0,-0.8 0,-1.3 0,-2.2 c0,-0.4 0.1,-0.7000000000000001 0.2,-1 c0,0 0.1,-0.1 0.30000000000000004,0 C39.49999990463257,59.00001220703126 39.59999990463257,59.20001220703125 39.59999990463257,59.40001220703124 " id="svg_30" fill-opacity="1"/>
	<path fill="#7ac142" d="M39.59999990463257,66.10001220703123 c0.1,0.7000000000000001 0.1,1.5 0.30000000000000004,2.3 c0.2,1.3 0.4,2.1 0.5,2.6 c0,0.4 -0.1,0.8 -0.4,1 c-0.2,0.2 -0.30000000000000004,0.1 -0.4,0.1 c-0.30000000000000004,-0.1 -0.5,-0.30000000000000004 -0.6000000000000001,-1 c-0.1,-0.8 -0.30000000000000004,-1.6 -0.30000000000000004,-2.4 s-0.1,-1.2 0,-2.2 c0,-0.4 0.1,-0.7000000000000001 0.2,-0.9 c0,0 0.1,-0.1 0.30000000000000004,0 C39.399999904632566,65.70001220703125 39.49999990463257,65.80001220703127 39.59999990463257,66.10001220703123 " id="svg_31" fill-opacity="1"/>
	<path fill="#7ac142" d="M39.69999990463257,72.70001220703125 c0.1,0.7000000000000001 0.2,1.5 0.30000000000000004,2.3 c0.2,1.3 0.4,2.1 0.5,2.6 c0,0.4 0,0.8 -0.4,1.1 c-0.2,0.1 -0.30000000000000004,0.1 -0.4,0.1 c-0.30000000000000004,-0.1 -0.5,-0.30000000000000004 -0.6000000000000001,-1 c-0.1,-0.8 -0.30000000000000004,-1.6 -0.30000000000000004,-2.4 c0,-0.8 -0.1,-1.3 0,-2.2 c0.1,-0.4 0.1,-0.7000000000000001 0.2,-0.9 c0,-0.1 0.1,-0.1 0.30000000000000004,-0.1 C39.49999990463257,72.40001220703124 39.59999990463257,72.50001220703126 39.69999990463257,72.70001220703125 " id="svg_32" fill-opacity="1"/>
	<path fill="#7ac142" d="M39.59999990463257,79.60001220703123 c0.1,0.7000000000000001 0.2,1.5 0.30000000000000004,2.3 c0.2,1.3 0.4,2.1 0.5,2.6 c0.1,0.4 0,0.8 -0.4,1 c-0.2,0.1 -0.30000000000000004,0.1 -0.4,0.1 c-0.30000000000000004,-0.1 -0.5,-0.30000000000000004 -0.6000000000000001,-1 c-0.1,-0.8 -0.30000000000000004,-1.6 -0.30000000000000004,-2.4 s0,-1.2 0,-2.2 c0,-0.4 0.1,-0.8 0.2,-0.9 c0,-0.1 0.1,-0.1 0.30000000000000004,0 C39.49999990463257,79.20001220703125 39.59999990463257,79.30001220703127 39.59999990463257,79.60001220703123 " id="svg_33" fill-opacity="1"/>
	<path fill="#7ac142" d="M39.59999990463257,86.30001220703127 c0.1,0.6000000000000001 0.2,1.5 0.30000000000000004,2.3 c0.2,1.3 0.4,2.1 0.5,2.6 c0.1,0.4 0,0.8 -0.4,1 c-0.2,0.2 -0.30000000000000004,0.1 -0.4,0.1 c-0.30000000000000004,-0.1 -0.5,-0.30000000000000004 -0.6000000000000001,-1 c-0.1,-0.7000000000000001 -0.30000000000000004,-1.6 -0.30000000000000004,-2.4 c0,-0.8 0,-1.3 0,-2.2 c0,-0.4 0.1,-0.7000000000000001 0.2,-0.9 c0,-0.1 0.1,-0.1 0.30000000000000004,-0.1 C39.49999990463257,85.90001220703124 39.59999990463257,86.10001220703123 39.59999990463257,86.30001220703127 " id="svg_34" fill-opacity="1"/>
	<path fill="#7ac142" d="M45.49999990463257,30.40001220703124 c-0.1,0.6000000000000001 -0.5,0.8 -1,0.9 c-0.6000000000000001,0.1 -0.9,0.1 -1.4,-0.1 c-0.5,-0.30000000000000004 -0.9,-0.5 -1.2,-0.9 c-0.30000000000000004,-0.4 -0.8,-0.8 -1.1,-1.7000000000000002 c-0.30000000000000004,-0.8 -0.6000000000000001,-1.7000000000000002 -0.5,-2.5 c0.2,-0.8 0.7000000000000001,-1.2 1.2,-1.3 s1.3,0.1 1.7000000000000002,0.5 s0.8,0.8 1.2,1.2 c0.30000000000000004,0.30000000000000004 0.6000000000000001,0.9 0.8,1.4 c0.30000000000000004,0.5 0.4,1.1 0.30000000000000004,1.6 C45.59999990463257,29.800012207031273 45.59999990463257,30.00001220703126 45.49999990463257,30.40001220703124 " id="svg_35" fill-opacity="1"/>
	<path fill="#7ac142" d="M56.69999990463257,35.40001220703124 c0.6000000000000001,-0.2 1.4,-0.2 1.9,-0.1 s1,0.5 1.2,0.8 c0.2,0.4 0.30000000000000004,1.1 0.4,1.7000000000000002 c0,0.30000000000000004 0,0.7000000000000001 -0.1,1.1 c-0.2,0.8 -0.4,1.3 -0.8,1.6 c-0.5,0.30000000000000004 -0.9,0.7000000000000001 -1.5,0.8 c-0.6000000000000001,0.1 -1.2,0.4 -2,0.4 c-0.8,0.1 -1.4,-0.1 -2,-0.9 c-0.6000000000000001,-0.8 -0.6000000000000001,-1.5 -0.4,-2.6 c0.2,-1.1 0.7000000000000001,-1.7000000000000002 1.4,-2.1 c0.30000000000000004,-0.2 0.7000000000000001,-0.4 1,-0.5 L56.69999990463257,35.40001220703124 z" id="svg_36" fill-opacity="1"/>
	<path fill="#7ac142" d="M66.79999990463257,25.300012207031273 c0.6000000000000001,-0.2 0.7000000000000001,0.2 0.8,1.2 c0.1,0.9 0.1,1.4 0,2.2 c0,0.8 -0.2,1.7000000000000002 -0.30000000000000004,2.4 c-0.1,0.7000000000000001 -0.4,1 -0.7000000000000001,1.2 c-0.4,0.1 -0.9,-0.30000000000000004 -1,-0.7000000000000001 c-0.2,-0.4 -0.1,-1 0.1,-1.4 c0.1,-0.5 0.2,-1.1 0.30000000000000004,-1.9 c0.1,-0.8 0.2,-1.6 0.30000000000000004,-2.3 C66.39999990463257,25.600012207031227 66.59999990463257,25.40001220703124 66.79999990463257,25.300012207031273 " id="svg_37" fill-opacity="1"/>
	<path fill="#7ac142" d="M66.89999990463257,18.00001220703126 c0.2,-0.1 0.30000000000000004,0 0.30000000000000004,0.1 c0.2,0.30000000000000004 0.30000000000000004,0.6000000000000001 0.4,1.2 c0.1,0.8 0.2,1.6 0.1,2.9 l-0.1,1.3 c-0.1,0.8 -0.2,1.4 -0.5,1.7000000000000002 c-0.2,0.30000000000000004 -0.4,0.30000000000000004 -0.7000000000000001,0.1 c-0.4,-0.30000000000000004 -0.4,-0.6000000000000001 -0.4,-1 c0,-0.5 0.1,-1.2 0.30000000000000004,-2.2 c0.2,-1.1 0.30000000000000004,-2.1 0.30000000000000004,-2.7 v-0.8 C66.39999990463257,18.300012207031273 66.49999990463257,18.100012207031227 66.89999990463257,18.00001220703126 " id="svg_38" fill-opacity="1"/>
	<path fill="#7ac142" d="M66.79999990463257,32.30001220703127 c0.30000000000000004,-0.1 0.30000000000000004,0 0.30000000000000004,0 c0.1,0.2 0.2,0.5 0.2,0.9 c0.1,0.9 0.1,1.4 0,2.2 c0,0.8 -0.2,1.6 -0.30000000000000004,2.4 c-0.1,0.6000000000000001 -0.30000000000000004,0.8 -0.6000000000000001,0.9 c-0.1,0 -0.2,0 -0.4,-0.1 c-0.4,-0.30000000000000004 -0.4,-0.6000000000000001 -0.4,-1.1 c0.2,-1 0.4,-1.9 0.5,-2.6 c0.1,-0.8 0.2,-1.6 0.30000000000000004,-2.3 C66.49999990463257,32.50001220703126 66.69999990463256,32.40001220703124 66.79999990463257,32.30001220703127 " id="svg_39" fill-opacity="1"/>
	<path fill="#7ac142" d="M56.69999990463257,28.800012207031273 c0.6000000000000001,-0.2 1.4,-0.2 1.9,-0.1 s1,0.5 1.2,0.8 c0.2,0.4 0.30000000000000004,1.1 0.4,1.7000000000000002 c0,0.30000000000000004 0,0.7000000000000001 -0.1,1.1 c-0.2,0.8 -0.4,1.3 -0.8,1.6 c-0.4,0.30000000000000004 -0.9,0.7000000000000001 -1.5,0.8 c-0.6000000000000001,0.2 -1.2,0.4 -2,0.4 c-0.8,0 -1.4,-0.1 -2,-0.8 c-0.6000000000000001,-0.8 -0.6000000000000001,-1.5 -0.4,-2.6 c0.2,-1.1 0.7000000000000001,-1.7000000000000002 1.4,-2.1 c0.30000000000000004,-0.2 0.7000000000000001,-0.4 1,-0.5 L56.69999990463257,28.800012207031273 z" id="svg_40" fill-opacity="1"/>
	<path fill="#7ac142" d="M56.69999990463257,48.60001220703123 c0.6000000000000001,-0.2 1.4,-0.2 1.9,-0.1 c0.5,0.1 1,0.5 1.2,0.8 c0.2,0.4 0.30000000000000004,1.1 0.4,1.7000000000000002 c0,0.30000000000000004 0,0.7000000000000001 -0.1,1.1 c-0.2,0.8 -0.4,1.3 -0.8,1.6 c-0.5,0.30000000000000004 -0.9,0.7000000000000001 -1.5,0.8 c-0.6000000000000001,0.1 -1.2,0.4 -2,0.4 c-0.8,0 -1.4,-0.1 -2,-0.8 c-0.6000000000000001,-0.8 -0.6000000000000001,-1.5 -0.4,-2.6 c0.2,-1.1 0.7000000000000001,-1.6 1.4,-2.1 c0.30000000000000004,-0.2 0.7000000000000001,-0.4 1,-0.5 L56.69999990463257,48.60001220703123 z" id="svg_41" fill-opacity="1"/>
	<path fill="#7ac142" d="M56.69999990463257,42.00001220703126 c0.6000000000000001,-0.2 1.4,-0.2 1.9,-0.1 c0.5,0.1 1,0.5 1.2,0.8 c0.2,0.4 0.30000000000000004,1.1 0.4,1.7000000000000002 c0,0.30000000000000004 0,0.6000000000000001 -0.1,1.1 c-0.2,0.8 -0.4,1.3 -0.8,1.6 c-0.5,0.30000000000000004 -0.9,0.7000000000000001 -1.5,0.8 c-0.6000000000000001,0.1 -1.2,0.4 -2,0.4 c-0.8,0 -1.4,-0.1 -2,-0.8 c-0.6000000000000001,-0.8 -0.6000000000000001,-1.5 -0.4,-2.6 c0.2,-1.1 0.7000000000000001,-1.7000000000000002 1.4,-2.1 c0.30000000000000004,-0.2 0.7000000000000001,-0.4 1,-0.5 L56.69999990463257,42.00001220703126 L56.69999990463257,42.00001220703126 z" id="svg_42" fill-opacity="1"/>
	<path fill="#7ac142" d="M56.69999990463257,61.80001220703127 c0.6000000000000001,-0.2 1.4,-0.2 1.9,-0.1 s1,0.5 1.2,0.8 c0.2,0.4 0.30000000000000004,1.1 0.4,1.7000000000000002 c0,0.30000000000000004 0,0.6000000000000001 -0.1,1.1 c-0.2,0.8 -0.4,1.3 -0.8,1.6 c-0.5,0.30000000000000004 -0.9,0.6000000000000001 -1.5,0.8 c-0.6000000000000001,0.1 -1.2,0.4 -2,0.4 c-0.8,0.1 -1.4,-0.1 -2,-0.8 c-0.6000000000000001,-0.8 -0.6000000000000001,-1.5 -0.4,-2.6 c0.2,-1.1 0.7000000000000001,-1.7000000000000002 1.4,-2.1 c0.30000000000000004,-0.2 0.7000000000000001,-0.4 1,-0.5 L56.69999990463257,61.80001220703127 z" id="svg_43" fill-opacity="1"/>
	<path fill="#7ac142" d="M56.69999990463257,55.20001220703125 c0.6000000000000001,-0.2 1.4,-0.2 1.9,-0.2 c0.5,0.1 1,0.5 1.2,0.8 c0.2,0.4 0.30000000000000004,1.1 0.4,1.7000000000000002 c0,0.30000000000000004 0,0.6000000000000001 -0.1,1.1 c-0.2,0.8 -0.4,1.3 -0.8,1.6 c-0.4,0.30000000000000004 -0.9,0.6000000000000001 -1.5,0.8 c-0.6000000000000001,0.1 -1.2,0.4 -2,0.4 c-0.8,0 -1.4,0 -2,-0.8 c-0.6000000000000001,-0.8 -0.6000000000000001,-1.5 -0.4,-2.6 c0.2,-1.1 0.7000000000000001,-1.7000000000000002 1.4,-2.1 c0.30000000000000004,-0.2 0.7000000000000001,-0.4 1,-0.5 L56.69999990463257,55.20001220703125 z" id="svg_44" fill-opacity="1"/>
	<path fill="#7ac142" d="M56.69999990463257,74.90001220703124 c0.6000000000000001,-0.2 1.4,-0.2 1.9,-0.1 s1,0.5 1.2,0.8 c0.2,0.4 0.30000000000000004,1.1 0.4,1.7000000000000002 c0,0.30000000000000004 0,0.6000000000000001 -0.1,1.1 c-0.2,0.8 -0.4,1.3 -0.8,1.6 c-0.5,0.30000000000000004 -0.9,0.7000000000000001 -1.5,0.8 c-0.6000000000000001,0.1 -1.2,0.4 -2,0.4 c-0.8,0 -1.4,-0.1 -2,-0.8 c-0.6000000000000001,-0.8 -0.6000000000000001,-1.5 -0.4,-2.6 c0.2,-1.1 0.7000000000000001,-1.6 1.4,-2.1 c0.30000000000000004,-0.2 0.7000000000000001,-0.4 1,-0.5 h0.1 L56.69999990463257,74.90001220703124 z" id="svg_45" fill-opacity="1"/>
	<path fill="#7ac142" d="M56.69999990463257,68.30001220703127 c0.6000000000000001,-0.2 1.4,-0.2 1.9,-0.1 s1,0.5 1.2,0.8 c0.2,0.4 0.30000000000000004,1.1 0.4,1.7000000000000002 c0,0.30000000000000004 0,0.6000000000000001 -0.1,1.1 c-0.2,0.8 -0.4,1.3 -0.8,1.6 c-0.4,0.30000000000000004 -0.9,0.7000000000000001 -1.5,0.8 c-0.6000000000000001,0.1 -1.2,0.4 -2,0.4 c-0.8,0.1 -1.4,-0.1 -2,-0.9 c-0.6000000000000001,-0.8 -0.6000000000000001,-1.5 -0.4,-2.6 c0.2,-1.1 0.7000000000000001,-1.6 1.4,-2.1 c0.30000000000000004,-0.2 0.7000000000000001,-0.30000000000000004 1,-0.4 L56.69999990463257,68.30001220703127 z" id="svg_46" fill-opacity="1"/>
	<path fill="#7ac142" d="M56.69999990463257,88.10001220703123 c0.6000000000000001,-0.2 1.4,-0.2 1.9,-0.1 c0.5,0.1 1,0.4 1.2,0.8 c0.2,0.4 0.30000000000000004,1.1 0.4,1.7000000000000002 c0,0.30000000000000004 0,0.7000000000000001 -0.1,1.1 c-0.2,0.8 -0.4,1.3 -0.8,1.6 c-0.5,0.30000000000000004 -0.9,0.7000000000000001 -1.5,0.8 c-0.6000000000000001,0.1 -1.2,0.4 -2,0.4 c-0.8,0.1 -1.4,0 -2,-0.8 c-0.6000000000000001,-0.8 -0.6000000000000001,-1.5 -0.4,-2.6 c0.2,-1.1 0.7000000000000001,-1.7000000000000002 1.4,-2.1 c0.30000000000000004,-0.2 0.7000000000000001,-0.4 1,-0.5 L56.69999990463257,88.10001220703123 z" id="svg_47" fill-opacity="1"/>
	<path fill="#7ac142" d="M56.69999990463257,81.50001220703126 c0.6000000000000001,-0.2 1.4,-0.2 1.9,-0.1 c0.5,0.1 1,0.5 1.2,0.8 c0.2,0.4 0.30000000000000004,1.1 0.4,1.7000000000000002 c0,0.30000000000000004 0,0.7000000000000001 -0.1,1.1 c-0.2,0.8 -0.4,1.3 -0.8,1.6 c-0.5,0.30000000000000004 -0.9,0.7000000000000001 -1.5,0.8 c-0.6000000000000001,0.1 -1.2,0.4 -2,0.4 c-0.8,0 -1.4,-0.1 -2,-0.8 c-0.6000000000000001,-0.8 -0.6000000000000001,-1.5 -0.4,-2.6 c0.2,-1.1 0.7000000000000001,-1.6 1.4,-2.1 c0.30000000000000004,-0.2 0.7000000000000001,-0.4 1,-0.5 h0.1 L56.69999990463257,81.50001220703126 z" id="svg_48" fill-opacity="1"/>
	<path fill="#7ac142" d="M56.69999990463257,94.70001220703125 c0.6000000000000001,-0.2 1.4,-0.2 1.9,-0.1 s1,0.5 1.2,0.8 c0.2,0.4 0.30000000000000004,1.1 0.4,1.7000000000000002 c0,0.30000000000000004 0,0.7000000000000001 -0.1,1.1 c-0.2,0.8 -0.4,1.3 -0.8,1.6 c-0.5,0.30000000000000004 -0.9,0.6000000000000001 -1.5,0.8 c-0.6000000000000001,0.1 -1.2,0.4 -2,0.4 c-0.8,0 -1.4,0 -2,-0.8 c-0.6000000000000001,-0.8 -0.6000000000000001,-1.5 -0.4,-2.6 c0.2,-1.1 0.7000000000000001,-1.6 1.4,-2.1 c0.30000000000000004,-0.2 0.7000000000000001,-0.4 1,-0.5 L56.69999990463257,94.70001220703125 z" id="svg_49" fill-opacity="1"/>
	<path fill="#7ac142" d="M60.399999904632566,35.90001220703124 c0,-0.8 0.30000000000000004,-1.7000000000000002 0.8,-2.5 c0.30000000000000004,-0.5 0.6000000000000001,-0.8 1,-1.2 s0.7000000000000001,-0.8 1.4,-1 s1.2,-0.1 1.6,0.30000000000000004 c0.5,0.4 0.6000000000000001,1.3 0.4,2.2 s-0.6000000000000001,1.7000000000000002 -0.9,2.2 c-0.6000000000000001,0.7000000000000001 -0.9,1.1 -1.7000000000000002,1.6 c-0.5,0.30000000000000004 -0.8,0.30000000000000004 -1.4,0.2 c-0.5,-0.1 -0.8,-0.30000000000000004 -1,-1 C60.49999990463257,36.40001220703124 60.49999990463257,36.20001220703125 60.399999904632566,35.90001220703124 " id="svg_50" fill-opacity="1"/>
	<path fill="#7ac142" d="M60.399999904632566,42.60001220703123 c0,-0.8 0.30000000000000004,-1.7000000000000002 0.8,-2.5 c0.30000000000000004,-0.5 0.5,-0.8 1,-1.2 c0.4,-0.4 0.7000000000000001,-0.8 1.4,-1 c0.7000000000000001,-0.2 1.2,-0.1 1.6,0.30000000000000004 c0.5,0.4 0.6000000000000001,1.3 0.4,2.1 c-0.2,0.9 -0.6000000000000001,1.8 -0.9,2.2 c-0.6000000000000001,0.7000000000000001 -0.9,1.2 -1.7000000000000002,1.6 c-0.5,0.30000000000000004 -0.8,0.30000000000000004 -1.4,0.2 c-0.5,-0.1 -0.8,-0.4 -1,-1 C60.49999990463257,43.10001220703123 60.49999990463257,42.90001220703124 60.399999904632566,42.60001220703123 " id="svg_51" fill-opacity="1"/>
	<path fill="#7ac142" d="M60.399999904632566,49.30001220703127 c0,-0.8 0.30000000000000004,-1.7000000000000002 0.8,-2.5 c0.30000000000000004,-0.5 0.6000000000000001,-0.8 1,-1.2 s0.7000000000000001,-0.8 1.4,-1 c0.7000000000000001,-0.2 1.2,-0.1 1.6,0.30000000000000004 c0.5,0.4 0.6000000000000001,1.3 0.4,2.2 s-0.6000000000000001,1.7000000000000002 -0.9,2.2 c-0.6000000000000001,0.8 -0.9,1.2 -1.7000000000000002,1.6 c-0.5,0.30000000000000004 -0.8,0.30000000000000004 -1.4,0.2 c-0.5,-0.1 -0.8,-0.4 -1,-0.9 C60.49999990463257,49.80001220703127 60.49999990463257,49.60001220703123 60.399999904632566,49.30001220703127 " id="svg_52" fill-opacity="1"/>
	<path fill="#7ac142" d="M60.399999904632566,56.00001220703126 c0,-0.8 0.30000000000000004,-1.7000000000000002 0.8,-2.5 c0.30000000000000004,-0.5 0.6000000000000001,-0.8 1,-1.2 s0.7000000000000001,-0.8 1.4,-1 c0.7000000000000001,-0.2 1.2,-0.1 1.6,0.30000000000000004 c0.5,0.5 0.6000000000000001,1.3 0.4,2.2 s-0.6000000000000001,1.7000000000000002 -0.9,2.2 c-0.7000000000000001,0.8 -0.9,1.2 -1.7000000000000002,1.6 c-0.5,0.30000000000000004 -0.8,0.30000000000000004 -1.4,0.2 c-0.5,-0.1 -0.8,-0.4 -1,-1 C60.49999990463257,56.50001220703126 60.49999990463257,56.20001220703125 60.399999904632566,56.00001220703126 " id="svg_53" fill-opacity="1"/>
	<path fill="#7ac142" d="M60.399999904632566,62.70001220703125 c0,-0.8 0.30000000000000004,-1.8 0.8,-2.5 c0.30000000000000004,-0.5 0.5,-0.8 1,-1.2 c0.4,-0.4 0.7000000000000001,-0.8 1.4,-1 c0.7000000000000001,-0.2 1.2,-0.1 1.6,0.30000000000000004 c0.5,0.4 0.6000000000000001,1.3 0.4,2.1 c-0.2,0.9 -0.6000000000000001,1.8 -0.9,2.3 c-0.6000000000000001,0.7000000000000001 -0.9,1.1 -1.7000000000000002,1.6 c-0.5,0.30000000000000004 -0.8,0.30000000000000004 -1.4,0.2 c-0.5,-0.1 -0.8,-0.4 -1,-1 C60.49999990463257,63.20001220703125 60.49999990463257,62.90001220703124 60.399999904632566,62.70001220703125 " id="svg_54" fill-opacity="1"/>
	<path fill="#7ac142" d="M60.399999904632566,69.30001220703127 c0,-0.8 0.30000000000000004,-1.7000000000000002 0.8,-2.5 c0.30000000000000004,-0.5 0.6000000000000001,-0.8 1,-1.2 s0.7000000000000001,-0.8 1.4,-1 c0.7000000000000001,-0.2 1.2,-0.1 1.6,0.30000000000000004 c0.5,0.4 0.6000000000000001,1.3 0.4,2.2 s-0.6000000000000001,1.7000000000000002 -0.9,2.3 c-0.6000000000000001,0.8 -0.9,1.2 -1.7000000000000002,1.6 c-0.5,0.30000000000000004 -0.8,0.30000000000000004 -1.4,0.2 c-0.5,-0.1 -0.8,-0.4 -1,-1 C60.49999990463257,69.90001220703124 60.49999990463257,69.60001220703123 60.399999904632566,69.30001220703127 " id="svg_55" fill-opacity="1"/>
	<path fill="#7ac142" d="M60.399999904632566,76.00001220703126 c0,-0.8 0.30000000000000004,-1.7000000000000002 0.8,-2.4 c0.30000000000000004,-0.5 0.5,-0.8 1,-1.2 c0.4,-0.4 0.7000000000000001,-0.8 1.4,-1 c0.7000000000000001,-0.2 1.2,-0.1 1.6,0.4 c0.5,0.4 0.6000000000000001,1.3 0.4,2.1 c-0.2,0.9 -0.6000000000000001,1.8 -0.9,2.2 c-0.7000000000000001,0.8 -0.9,1.2 -1.7000000000000002,1.6 c-0.5,0.30000000000000004 -0.8,0.30000000000000004 -1.4,0.2 c-0.5,-0.1 -0.8,-0.4 -1,-1 C60.49999990463257,76.60001220703123 60.49999990463257,76.30001220703127 60.399999904632566,76.00001220703126 " id="svg_56" fill-opacity="1"/>
	<path fill="#7ac142" d="M60.399999904632566,82.70001220703125 c0,-0.8 0.30000000000000004,-1.7000000000000002 0.8,-2.5 c0.30000000000000004,-0.5 0.5,-0.8 1,-1.2 c0.4,-0.4 0.7000000000000001,-0.8 1.4,-1 c0.7000000000000001,-0.2 1.2,-0.1 1.6,0.30000000000000004 c0.5,0.4 0.6000000000000001,1.3 0.4,2.2 c-0.2,0.9 -0.6000000000000001,1.7000000000000002 -0.9,2.2 c-0.6000000000000001,0.7000000000000001 -0.9,1.2 -1.7000000000000002,1.6 c-0.5,0.30000000000000004 -0.8,0.30000000000000004 -1.4,0.2 c-0.5,-0.1 -0.8,-0.4 -1,-0.9 C60.49999990463257,83.30001220703127 60.49999990463257,83.00001220703126 60.399999904632566,82.70001220703125 " id="svg_57" fill-opacity="1"/>
	<path fill="#7ac142" d="M60.399999904632566,89.40001220703124 c0,-0.8 0.30000000000000004,-1.7000000000000002 0.8,-2.4 c0.30000000000000004,-0.5 0.6000000000000001,-0.8 1,-1.2 s0.7000000000000001,-0.8 1.4,-1 c0.7000000000000001,-0.2 1.2,-0.1 1.6,0.30000000000000004 c0.5,0.4 0.6000000000000001,1.3 0.4,2.2 s-0.6000000000000001,1.7000000000000002 -0.9,2.2 c-0.6000000000000001,0.8 -0.9,1.2 -1.7000000000000002,1.6 c-0.5,0.30000000000000004 -0.8,0.30000000000000004 -1.4,0.2 c-0.5,-0.1 -0.8,-0.4 -1,-0.9 C60.49999990463257,90.00001220703126 60.49999990463257,89.70001220703125 60.399999904632566,89.40001220703124 " id="svg_58" fill-opacity="1"/>
	<path fill="#7ac142" d="M60.49999990463257,95.80001220703127 c-0.1,-0.8 0.30000000000000004,-1.7000000000000002 0.7000000000000001,-2.5 c0.30000000000000004,-0.5 0.6000000000000001,-0.8 1,-1.2 s0.7000000000000001,-0.8 1.4,-1 c0.7000000000000001,-0.2 1.2,-0.1 1.6,0.30000000000000004 c0.5,0.4 0.6000000000000001,1.3 0.4,2.2 s-0.5,1.7000000000000002 -1,2.3 c-0.6000000000000001,0.8 -0.9,1.1 -1.7000000000000002,1.6 c-0.5,0.30000000000000004 -0.8,0.30000000000000004 -1.4,0.2 c-0.5,-0.1 -0.8,-0.4 -1,-0.9 C60.59999990463257,96.30001220703127 60.49999990463257,96.00001220703126 60.49999990463257,95.80001220703127 " id="svg_59" fill-opacity="1"/>
	<path fill="#7ac142" d="M66.79999990463257,39.00001220703126 c0.30000000000000004,-0.1 0.30000000000000004,0 0.30000000000000004,0 c0.1,0.2 0.1,0.5 0.2,0.9 c0.1,0.9 0.1,1.3 0,2.2 c-0.1,0.8 -0.2,1.7000000000000002 -0.30000000000000004,2.4 c-0.1,0.7000000000000001 -0.30000000000000004,0.8 -0.6000000000000001,0.9 c0,0 -0.2,0.1 -0.30000000000000004,-0.1 c-0.4,-0.30000000000000004 -0.5,-0.6000000000000001 -0.4,-1.1 c0.2,-1 0.4,-1.9 0.5,-2.6 c0.1,-0.8 0.2,-1.7000000000000002 0.30000000000000004,-2.3 C66.49999990463257,39.20001220703125 66.59999990463257,39.10001220703123 66.79999990463257,39.00001220703126 " id="svg_60" fill-opacity="1"/>
	<path fill="#7ac142" d="M66.79999990463257,45.80001220703127 c0.30000000000000004,-0.1 0.30000000000000004,0 0.30000000000000004,0.1 c0.1,0.2 0.1,0.5 0.2,0.9 c0.1,0.9 0.1,1.4 0,2.2 c-0.1,0.8 -0.2,1.6 -0.30000000000000004,2.4 c-0.1,0.7000000000000001 -0.30000000000000004,0.8 -0.6000000000000001,0.9 c-0.1,0 -0.2,0 -0.4,-0.1 c-0.4,-0.30000000000000004 -0.4,-0.6000000000000001 -0.4,-1 c0.2,-1 0.4,-1.9 0.5,-2.6 c0.1,-0.8 0.2,-1.7000000000000002 0.30000000000000004,-2.3 C66.49999990463257,46.00001220703126 66.59999990463257,45.90001220703124 66.79999990463257,45.80001220703127 " id="svg_61" fill-opacity="1"/>
	<path fill="#7ac142" d="M66.89999990463257,52.20001220703125 c0.2,-0.1 0.30000000000000004,0 0.30000000000000004,0 c0.1,0.2 0.1,0.5 0.2,0.9 c0.1,0.9 0.1,1.4 0,2.2 c0,0.8 -0.2,1.6 -0.30000000000000004,2.4 c-0.1,0.7000000000000001 -0.30000000000000004,0.9 -0.6000000000000001,1 c0,0 -0.2,0.1 -0.4,-0.1 c-0.30000000000000004,-0.30000000000000004 -0.4,-0.6000000000000001 -0.4,-1.1 c0.2,-1 0.4,-1.9 0.5,-2.6 c0.1,-0.8 0.2,-1.6 0.30000000000000004,-2.3 C66.59999990463257,52.50001220703126 66.69999990463256,52.30001220703127 66.89999990463257,52.20001220703125 " id="svg_62" fill-opacity="1"/>
	<path fill="#7ac142" d="M66.79999990463257,59.00001220703126 c0.30000000000000004,-0.1 0.30000000000000004,0 0.30000000000000004,0 c0.1,0.2 0.2,0.5 0.2,0.9 c0.1,0.9 0.1,1.4 0,2.2 c0,0.8 -0.2,1.6 -0.30000000000000004,2.4 c-0.1,0.7000000000000001 -0.30000000000000004,0.8 -0.6000000000000001,0.9 c-0.1,0 -0.2,0 -0.4,-0.1 c-0.4,-0.30000000000000004 -0.4,-0.6000000000000001 -0.4,-1 c0.2,-1 0.4,-1.9 0.5,-2.6 c0.1,-0.8 0.2,-1.6 0.30000000000000004,-2.3 C66.49999990463257,59.20001220703125 66.69999990463256,59.00001220703126 66.79999990463257,59.00001220703126 " id="svg_63" fill-opacity="1"/>
	<path fill="#7ac142" d="M66.79999990463257,65.50001220703126 c0.30000000000000004,-0.1 0.30000000000000004,0 0.30000000000000004,0 c0.1,0.2 0.2,0.5 0.2,1 c0.1,0.9 0.1,1.4 0,2.2 c0,0.8 -0.2,1.6 -0.30000000000000004,2.4 c-0.1,0.7000000000000001 -0.30000000000000004,0.9 -0.6000000000000001,1 c-0.1,0 -0.2,0.1 -0.4,-0.1 c-0.4,-0.30000000000000004 -0.4,-0.6000000000000001 -0.4,-1 c0.2,-1 0.4,-1.9 0.5,-2.6 c0.1,-0.8 0.2,-1.6 0.30000000000000004,-2.3 C66.49999990463257,65.70001220703125 66.69999990463256,65.60001220703123 66.79999990463257,65.50001220703126 " id="svg_64" fill-opacity="1"/>
	<path fill="#7ac142" d="M66.79999990463257,72.30001220703127 c0.30000000000000004,-0.1 0.30000000000000004,0 0.30000000000000004,0.1 c0.1,0.2 0.2,0.5 0.2,0.9 c0.1,0.9 0.1,1.4 0,2.2 c0,0.8 -0.2,1.6 -0.30000000000000004,2.4 c-0.1,0.6000000000000001 -0.30000000000000004,0.8 -0.6000000000000001,0.9 c-0.1,0 -0.2,0 -0.4,-0.1 c-0.4,-0.30000000000000004 -0.4,-0.6000000000000001 -0.4,-1 c0.2,-1 0.4,-1.9 0.5,-2.6 c0.1,-0.8 0.2,-1.6 0.30000000000000004,-2.3 C66.49999990463257,72.50001220703126 66.69999990463256,72.40001220703124 66.79999990463257,72.30001220703127 " id="svg_65" fill-opacity="1"/>
	<path fill="#7ac142" d="M66.79999990463257,79.00001220703126 c0.30000000000000004,-0.1 0.30000000000000004,0 0.30000000000000004,0 c0.1,0.2 0.2,0.5 0.2,0.9 c0.1,0.9 0.1,1.3 0,2.2 c0,0.8 -0.2,1.6 -0.30000000000000004,2.4 c-0.1,0.7000000000000001 -0.30000000000000004,0.8 -0.6000000000000001,1 c-0.1,0 -0.2,0 -0.4,-0.1 c-0.4,-0.30000000000000004 -0.4,-0.6000000000000001 -0.4,-1.1 c0.2,-1 0.4,-1.9 0.5,-2.6 c0.1,-0.8 0.2,-1.6 0.30000000000000004,-2.3 C66.49999990463257,79.20001220703125 66.69999990463256,79.00001220703126 66.79999990463257,79.00001220703126 " id="svg_66" fill-opacity="1"/>
	<path fill="#7ac142" d="M66.79999990463257,85.60001220703123 c0.30000000000000004,-0.1 0.30000000000000004,0 0.30000000000000004,0.1 c0.1,0.2 0.2,0.5 0.2,0.9 c0.1,0.9 0.1,1.3 0,2.2 c0,0.8 -0.2,1.6 -0.30000000000000004,2.4 c-0.1,0.6000000000000001 -0.30000000000000004,0.9 -0.6000000000000001,0.9 c-0.1,0 -0.2,0.1 -0.4,-0.1 c-0.4,-0.30000000000000004 -0.4,-0.6000000000000001 -0.4,-1.1 c0.2,-1 0.4,-1.9 0.5,-2.6 c0.1,-0.8 0.2,-1.6 0.30000000000000004,-2.3 C66.49999990463257,85.80001220703127 66.69999990463256,85.70001220703125 66.79999990463257,85.60001220703123 " id="svg_67" fill-opacity="1"/>
	<path fill="#7ac142" d="M60.399999904632566,29.40001220703124 c0,-0.8 0.30000000000000004,-1.7000000000000002 0.8,-2.5 c0.30000000000000004,-0.5 0.6000000000000001,-0.8 1,-1.2 s0.7000000000000001,-0.8 1.4,-1 s1.2,-0.1 1.6,0.4 c0.5,0.4 0.6000000000000001,1.3 0.4,2.2 s-0.6000000000000001,1.7000000000000002 -0.9,2.2 c-0.6000000000000001,0.7000000000000001 -0.9,1.2 -1.7000000000000002,1.6 c-0.5,0.30000000000000004 -0.8,0.30000000000000004 -1.4,0.2 c-0.5,-0.1 -0.8,-0.4 -1,-0.9 C60.49999990463257,30.00001220703126 60.49999990463257,29.70001220703125 60.399999904632566,29.40001220703124 " id="svg_68" fill-opacity="1"/>
	<path fill="#7ac142" d="M46.399999904632566,14.300012207031273 c0,0.4 -0.4,1 -0.8,1.3 c-1.1,0.9 -3,2.1 -5,2.5 c-0.5,0.1 -1.1,-0.5 -1.4,-1 c-0.8,-1.5 -0.8,-3.6 -0.30000000000000004,-4.8 c0.30000000000000004,-0.9 1,-1.8 1.7000000000000002,-1.6 c2.1,0.5 4.3,1.8 5,2.5 C46.19999990463257,13.70001220703125 46.399999904632566,13.900012207031239 46.399999904632566,14.300012207031273 " id="svg_69" fill-opacity="1"/>
	<path fill="#7ac142" d="M55.09999990463257,20.70001220703125 c0.4,-0.1 1,0.1 1.5,0.4 c1.1,0.8 2.8,2.2 3.8,4.1 c0.2,0.4 -0.2,1.2 -0.5,1.7000000000000002 c-1.1,1.2 -3.2,1.8 -4.5,1.7000000000000002 c-0.9,-0.1 -2,-0.5 -2,-1.1 c-0.2,-2.2 0.4,-4.7 0.8,-5.6 C54.59999990463257,21.100012207031227 54.69999990463257,20.800012207031273 55.09999990463257,20.70001220703125 " id="svg_70" fill-opacity="1"/>
	<path fill="#7ac142" d="M50.99999990463257,20.800012207031273 c0.4,0.1 0.8,0.7000000000000001 1,1.2 c0.5,1.3 1,3.5 0.8,5.6 c-0.1,0.5 -0.8,0.9 -1.4,1 c-1.6,0.30000000000000004 -3.6,-0.4 -4.6,-1.2 c-0.7000000000000001,-0.6000000000000001 -1.3,-1.5 -1,-2.1 c1.1,-1.9 3,-3.6 3.9,-4.1 C50.399999904632566,20.800012207031273 50.59999990463257,20.70001220703125 50.99999990463257,20.800012207031273 " id="svg_71" fill-opacity="1"/>
	<path fill="#7ac142" d="M47.899999904632566,18.100012207031227 c0.2,0.4 0.2,1 0.1,1.5 c-0.4,1.4 -1.2,3.4 -2.6,5 c-0.4,0.4 -1.2,0.2 -1.7000000000000002,0 c-1.5,-0.7000000000000001 -2.7,-2.5 -3,-3.8 c-0.2,-0.9 -0.2,-2 0.4,-2.3 c2,-0.9 4.5,-1.1 5.5,-0.9 C47.399999904632566,17.70001220703125 47.59999990463257,17.800012207031273 47.899999904632566,18.100012207031227 " id="svg_72" fill-opacity="1"/>
	<path fill="#7ac142" d="M59.69999990463257,14.300012207031273 c0,-0.4 0.4,-1 0.8,-1.3 c1.1,-0.9 3,-2 5,-2.4 c0.5,-0.1 1.1,0.5 1.4,1 c0.8,1.5 0.7000000000000001,3.6 0.2,4.8 c-0.4,0.9 -1,1.7000000000000002 -1.7000000000000002,1.6 c-2.1,-0.5 -4.3,-1.8 -5,-2.6 C59.899999904632566,14.900012207031239 59.69999990463257,14.70001220703125 59.69999990463257,14.300012207031273 " id="svg_73" fill-opacity="1"/>
	<path fill="#7ac142" d="M55.19999990463257,8.100012207031227 c-0.4,-0.1 -0.8,-0.7000000000000001 -1,-1.2 c-0.5,-1.3 -1,-3.5 -0.7000000000000001,-5.6 c0,-0.5 0.8,-0.9 1.4,-1 c1.6,-0.30000000000000004 3.6,0.4 4.6,1.2 c0.7000000000000001,0.6000000000000001 1.3,1.5 1,2.1 c-1.1,1.9 -3,3.6 -3.9,4.1 C55.79999990463257,8.100012207031227 55.59999990463257,8.20001220703125 55.19999990463257,8.100012207031227 " id="svg_74" fill-opacity="1"/>
	<path fill="#7ac142" d="M51.09999990463257,8.000012207031261 c-0.4,0.2 -1.1,-0.1 -1.5,-0.30000000000000004 c-1.2,-0.8 -2.8,-2.2 -3.9,-4.1 c-0.2,-0.5 0.1,-1.3 0.5,-1.7000000000000002 c1.1,-1.2 3.1,-1.9 4.4,-1.8 c0.9,0.1 2,0.4 2,1.1 c0.2,2.2 -0.30000000000000004,4.7 -0.7000000000000001,5.6 C51.59999990463257,7.70001220703125 51.49999990463257,7.900012207031239 51.09999990463257,8.000012207031261 " id="svg_75" fill-opacity="1"/>
	<path fill="#7ac142" d="M58.49999990463257,10.400012207031239 c-0.2,-0.30000000000000004 -0.2,-1 -0.1,-1.5 c0.4,-1.4 1.3,-3.4 2.7,-5 c0.30000000000000004,-0.4 1.2,-0.2 1.7000000000000002,0 c1.5,0.7000000000000001 2.7,2.5 3,3.8 c0.2,0.9 0.2,2 -0.4,2.3 c-2,0.9 -4.5,1.1 -5.5,0.9 C58.99999990463257,10.800012207031273 58.69999990463257,10.70001220703125 58.49999990463257,10.400012207031239 " id="svg_76" fill-opacity="1"/>
	<path fill="#7ac142" d="M58.49999990463257,18.20001220703125 c0.2,-0.30000000000000004 0.9,-0.5 1.4,-0.5 c1.4,-0.1 3.6,0.1 5.5,1 c0.5,0.2 0.6000000000000001,1.1 0.5,1.7000000000000002 c-0.2,1.7000000000000002 -1.5,3.4 -2.6,4.1 c-0.8,0.5 -1.9,0.8 -2.3,0.30000000000000004 c-1.5,-1.7000000000000002 -2.4,-4 -2.6,-5 C58.29999990463257,18.800012207031273 58.19999990463257,18.600012207031227 58.49999990463257,18.20001220703125 " id="svg_77" fill-opacity="1"/>
	<path fill="#7ac142" d="M47.69999990463257,10.400012207031239 c-0.30000000000000004,0.4 -0.9,0.6000000000000001 -1.4,0.6000000000000001 c-1.4,0.1 -3.6,-0.1 -5.5,-1 c-0.5,-0.2 -0.6000000000000001,-1.1 -0.5,-1.7000000000000002 c0.2,-1.7000000000000002 1.5,-3.4 2.5,-4.1 c0.8,-0.5 1.8,-0.8 2.3,-0.30000000000000004 c1.5,1.6 2.5,4 2.6,5 C47.899999904632566,9.800012207031273 47.899999904632566,10.000012207031261 47.69999990463257,10.400012207031239 " id="svg_78" fill-opacity="1"/>
	<path fill="#7ac142" d="M53.19999990463257,20.600012207031227 c3.4,0 6.2,-2.8 6.2,-6.3 s-2.8,-6.3 -6.2,-6.3 s-6.2,2.8 -6.2,6.3 S49.69999990463257,20.600012207031227 53.19999990463257,20.600012207031227 " id="svg_79" fill-opacity="1"/>
	<path fill="#7ac142" d="M153.19999990463256,93.80001220703127 c-7.4,4.4 -16.2,5.8 -24.9,5.8 c-11,0 -22.4,-2.5 -30.7,-9.9 c-8.4,-7.3 -12.1,-17.8 -12.1,-28.5 c0,-24 20.2,-36.1 43.3,-36.1 c8.9,0 16,1.1 24.6,3.9 c0.9,0.30000000000000004 2.1,0.5 1.7000000000000002,2.1 c-0.6000000000000001,3.3 -1.5,11.5 -1.7000000000000002,16.1 h-4.2 c-0.1,-3 -0.2,-6 -0.6000000000000001,-9 c-5.2,-5.3 -12,-7.2 -19.4,-7.2 c-8,0 -15.7,2.8 -21,8.8 c-4.8,5.3 -6.4,13.1 -6.4,20.1 c0,8.8 2.3,17.2 8.6,23.8 c6.6,6.9 13.8,9.1 23.3,9.1 c6.4,0 15.2,-2.2 20.7,-5.3 l1.3,1.2 L153.19999990463256,93.80001220703127 z" id="svg_80" fill-opacity="1"/>
	<path fill="#7ac142" d="M180.99999990463257,38.90001220703124 c-0.1,-7.5 -0.5,-8.4 -9.2,-8.2 v-4.4 c7.1,0.30000000000000004 12.7,0.6000000000000001 16.9,0.6000000000000001 c4.2,0 9.6,-0.30000000000000004 16.8,-0.6000000000000001 v4.5 c-8.8,-0.30000000000000004 -9.2,0.5 -9.2,8.1 v47 c0,7.5 0.4,8.4 9.2,8.1 v4.5 c-7.2,-0.30000000000000004 -12.6,-0.6000000000000001 -16.8,-0.6000000000000001 c-4.2,0 -9.8,0.2 -16.9,0.6000000000000001 v-4.4 c8.7,0.2 9.1,-0.6000000000000001 9.2,-8.2 V38.90001220703124 z" id="svg_81" fill-opacity="1"/>
	<path fill="#7ac142" d="M299.09999990463257,40.50001220703126 l-11.7,22.9 l-15.9,33.2 l-1.2,2.4 h-3.7 c-0.2,-1 -2.5,-5.8 -3.9,-8.7 l-24.9,-49.8 v45.4 c0,7.5 0.4,8.4 9.2,8.1 v4.5 c-5.1,-0.30000000000000004 -9.1,-0.6000000000000001 -12.2,-0.6000000000000001 c-3.1,0 -7.2,0.2 -12.5,0.6000000000000001 v-4.5 c8.8,0.30000000000000004 9.2,-0.5 9.2,-8.1 v-47 c0,-7.5 -0.4,-8.4 -9.2,-8.1 v-4.5 c6.4,0.30000000000000004 10.4,0.6000000000000001 13.5,0.6000000000000001 c3.2,0 7.1,-0.30000000000000004 12.5,-0.6000000000000001 c1.9,4.5 5.6,12.5 8.1,17.1 l17.1,34.6 c1.7000000000000002,-3 3.3,-6.1 4.8,-9.2 c7.9,-16.4 17.4,-35.8 20.3,-42.5 c5.3,0.30000000000000004 9.3,0.6000000000000001 12.5,0.6000000000000001 c3.3,0 7.2,-0.30000000000000004 12.6,-0.6000000000000001 v4.5 c-8.8,-0.30000000000000004 -9.2,0.5 -9.2,8.1 v47 c0,7.5 0.4,8.4 9.2,8.1 v4.5 c-7.1,-0.30000000000000004 -12.6,-0.6000000000000001 -16.8,-0.6000000000000001 c-4.2,0 -9.7,0.2 -16.9,0.6000000000000001 v-4.4 c8.7,0.2 9.1,-0.6000000000000001 9.2,-8.2 L299.09999990463257,40.50001220703126 L299.09999990463257,40.50001220703126 z" id="svg_82" fill-opacity="1"/>
	<path fill="#7ac142" d="M416.49999990463255,40.50001220703126 l-11.7,22.9 l-15.9,33.2 l-1.2,2.4 h-3.7 c-0.2,-1 -2.5,-5.8 -3.9,-8.7 l-24.9,-49.8 v45.4 c0,7.5 0.4,8.4 9.2,8.1 v4.5 c-5.1,-0.30000000000000004 -9.1,-0.6000000000000001 -12.2,-0.6000000000000001 c-3.1,0 -7.2,0.2 -12.5,0.6000000000000001 v-4.5 c8.8,0.30000000000000004 9.2,-0.5 9.2,-8.1 v-47 c0,-7.5 -0.4,-8.4 -9.2,-8.1 v-4.5 c6.4,0.30000000000000004 10.4,0.6000000000000001 13.5,0.6000000000000001 c3.3,0 7.1,-0.30000000000000004 12.5,-0.6000000000000001 c1.9,4.5 5.6,12.5 8.1,17.1 l17.1,34.6 c1.7000000000000002,-3 3.2,-6.1 4.8,-9.2 c7.9,-16.4 17.4,-35.8 20.3,-42.5 c5.3,0.30000000000000004 9.3,0.6000000000000001 12.5,0.6000000000000001 c3.3,0 7.2,-0.30000000000000004 12.6,-0.6000000000000001 v4.5 c-8.8,-0.30000000000000004 -9.2,0.5 -9.2,8.1 v47 c0,7.5 0.4,8.4 9.2,8.1 v4.5 c-7.1,-0.30000000000000004 -12.6,-0.6000000000000001 -16.8,-0.6000000000000001 s-9.7,0.2 -16.9,0.6000000000000001 v-4.4 c8.7,0.2 9.1,-0.6000000000000001 9.2,-8.2 L416.49999990463255,40.50001220703126 L416.49999990463255,40.50001220703126 z" id="svg_83" fill-opacity="1"/>
	<path fill="#7ac142" d="M496.09999990463257,60.60001220703123 c8.6,-13.6 16.2,-25.1 20.4,-33.8 h8.3 v2 l-4.4,6 L508.8999999046326,51.70001220703125 l-4.9,7.5 l-3.3,6.7 c-0.6000000000000001,1.4 -0.6000000000000001,3.2 -0.6000000000000001,4.9 V85.70001220703125 c0,7.5 0.4,8.4 9.2,8.1 v4.5 c-7.2,-0.30000000000000004 -12.6,-0.6000000000000001 -16.8,-0.6000000000000001 c-4.2,0 -9.7,0.2 -16.9,0.6000000000000001 v-4.4 c8.7,0.2 9.1,-0.6000000000000001 9.2,-8.2 v-13.2 c0,-2.2 -0.4,-4.4 -1,-5.6 c-1.1,-2.4 -2.5,-4.5 -3.8,-6.8 L469.09999990463257,43.20001220703125 c-1.6,-2.2 -3.8,-5 -5.7,-7 c-2.5,-2.6 -5.6,-3.4 -8.5,-3.4 v-3.9 l17.2,-3.8 c5.9,3.2 9.2,8.7 12.3,14.2 L496.09999990463257,60.60001220703123 z" id="svg_84" fill-opacity="1"/>
	<path fill="#7ac142" d="M578.5999999046326,85.80001220703127 c0,7.5 0.4,8.4 9.2,8.1 v4.5 c-7.2,-0.30000000000000004 -12.6,-0.6000000000000001 -16.8,-0.6000000000000001 c-4.2,0 -9.8,0.2 -16.9,0.6000000000000001 v-4.4 c8.7,0.2 9.1,-0.6000000000000001 9.2,-8.2 v-52.5 h-15.9 c-2.6,0.30000000000000004 -3.6,1 -4.9,3.3 c-0.2,1.8 -0.30000000000000004,4.4 -0.6000000000000001,7 h-4.3 c0.2,-5.1 -0.4,-11.8 -0.30000000000000004,-17.4 c14.4,0.30000000000000004 25.3,0.6000000000000001 33.9,0.6000000000000001 c8.6,0 19.3,-0.30000000000000004 34.2,-0.6000000000000001 c-0.30000000000000004,4.7 -0.9,11.1 -1.4,17.4 h-4.2 c0,-1.5 0,-2.9 -0.2,-4.4 c-0.8,-5.2 0.30000000000000004,-5.9 -5.7,-6 h-15.3 V85.80001220703127 L578.5999999046326,85.80001220703127 z" id="svg_85" fill-opacity="1"/>
</g></g></svg>